<svg width="4000" height="2128" viewBox="0 0 4000 2128" fill="none" xmlns="http://www.w3.org/2000/svg">
<g clip-path="url(#clip0_634_257)">
<rect width="4000" height="2128" fill="white"/>
<path d="M4000 3253.67H0V586.993H4000V3253.67Z" fill="white"/>
<path d="M601.61 3030.4C601.61 3030.4 194.9 2613.26 453.907 2122.75C712.915 1632.23 1060.47 1879.07 1043.84 1308.04C1027.22 736.996 1843.56 688.234 2103.35 853.895C2363.14 1019.56 2361.5 1218.97 2897.93 1153.18C3434.38 1087.38 3536.67 1637.42 3397.02 1917.69C3198.87 2315.33 3946.45 2250 3475.15 3031.4L601.61 3030.4Z" fill="#EBF3FA"/>
<path d="M3120.58 1648.54C3120.58 1689.13 3116.92 1728.9 3109.9 1767.51C3093.03 1860.15 3056.87 1946.04 3005.65 2020.9C2886.73 2194.84 2686.76 2309 2460.13 2309C2190.55 2309 1958.67 2147.5 1856.05 1915.93C1842.5 1885.42 1831.21 1853.69 1822.41 1820.95C1807.54 1765.99 1799.64 1708.18 1799.64 1648.54C1799.64 1600.31 1804.81 1553.27 1814.64 1508C1814.73 1507.47 1814.86 1506.98 1814.96 1506.45C1842.41 1381.26 1905.36 1269.42 1992.73 1181.91C2017.5 1157.08 2044.27 1134.2 2072.75 1113.54C2086.33 1103.7 2100.32 1094.34 2114.66 1085.55C2215.13 1023.72 2333.45 988.068 2460.13 988.068C2476.94 988.068 2493.57 988.681 2510.04 989.944C2533.3 991.648 2556.2 994.577 2578.71 998.674C2673.46 1015.83 2761.12 1053.22 2837.16 1106.21H2837.18C2884.55 1139.18 2927.37 1178.19 2964.59 1222.17C2984.12 1245.26 3002.09 1269.7 3018.35 1295.38C3028.46 1311.34 3037.91 1327.75 3046.68 1344.63C3067.72 1385.15 3084.67 1428.14 3097.01 1473.05C3112.39 1528.92 3120.58 1587.79 3120.58 1648.54Z" fill="#DCE8FF"/>
<path d="M2368.54 1323.58C2364 1322.96 2359.39 1322.63 2354.68 1322.63L1885.62 1322.47C1914.98 1270.87 1951.09 1223.62 1992.74 1181.9C2017.52 1157.06 2044.26 1134.2 2072.76 1113.55C2086.34 1103.69 2100.34 1094.33 2114.67 1085.53C2135.26 1086.29 2159.86 1094.11 2180.85 1120.07C2226.98 1177.19 2257.72 1148.64 2246.75 1214.52C2236.69 1274.8 2250.54 1287.29 2281.56 1287.29C2284.45 1287.29 2287.48 1287.19 2290.66 1287C2298.79 1286.52 2307.21 1286.14 2315.5 1286.14C2345.25 1286.14 2372.9 1291 2376.32 1313.35C2377.08 1318.34 2374.11 1321.51 2368.54 1323.58Z" fill="#B1CAFF"/>
<path d="M2455.29 2024.56L2455.32 1962.78C2463.91 1976.45 2472.14 1990.42 2470.77 2001.9C2469.54 2012.1 2463.24 2018.5 2455.29 2024.56ZM2500.25 1921.82C2491.73 1921.82 2483.24 1919.17 2475.26 1916.51C2468.09 1914.13 2461.34 1911.75 2455.34 1911.28L2455.4 1747.72C2463.24 1751.33 2472.04 1752.51 2480.24 1752.51C2495.85 1752.51 2509.2 1748.23 2509.2 1748.23C2516.14 1740.59 2528.37 1737.01 2540.81 1737.01C2567.74 1737.01 2595.76 1753.74 2573.99 1782.27C2542.14 1824 2563.01 1859.14 2532.26 1903.07C2522.19 1917.45 2511.19 1921.82 2500.25 1921.82Z" fill="#B1CAFF"/>
<path d="M2980.9 2024.98C2971.52 2024.98 2962.16 2023.2 2952.85 2019.47C2870.49 1986.52 2931.43 1897.58 2964.38 1853.1C2997.33 1808.62 2913.32 1828.39 2852.36 1787.21C2795.98 1749.11 2849.57 1651.79 2808.35 1651.79C2805 1651.79 2801.06 1652.43 2796.37 1653.78C2764.41 1663.03 2729.05 1673.56 2697.25 1673.56C2666.74 1673.56 2639.49 1663.87 2621.75 1634.02C2585.51 1573.07 2654.69 1563.18 2623.41 1512.12C2592.11 1461.05 2641.52 1431.4 2704.11 1426.46C2766.71 1421.52 2758.48 1377.04 2835.9 1370.45C2838.39 1370.24 2840.82 1370.14 2843.15 1370.14C2877.06 1370.14 2894.85 1391.71 2913.53 1413.28C2932.22 1434.85 2951.8 1456.43 2989.31 1456.43C2991.89 1456.43 2994.57 1456.33 2997.33 1456.11C3009.56 1455.17 3019.97 1454.77 3028.84 1454.77C3081.97 1454.77 3079.13 1469.29 3079.13 1469.29C3079.5 1469.28 3079.84 1469.28 3080.18 1469.28C3085.97 1469.28 3091.61 1470.56 3097.01 1473.05C3112.39 1528.92 3120.58 1587.79 3120.58 1648.54C3120.58 1689.13 3116.92 1728.9 3109.9 1767.51C3093.03 1860.15 3056.87 1946.04 3005.65 2020.9C2997.46 2023.59 2989.17 2024.98 2980.9 2024.98Z" fill="#B1CAFF"/>
<path d="M3015.62 1352.38C2994.58 1352.38 2977.36 1341.28 2960.67 1330.18C2943.98 1319.08 2927.83 1307.97 2908.89 1307.97C2901.72 1307.97 2894.13 1309.56 2885.98 1313.36C2874.04 1318.91 2864.84 1321.32 2857.38 1321.32C2826.54 1321.32 2825.94 1280.16 2787.03 1251.84C2775.33 1243.34 2760.78 1240.63 2745.51 1240.63C2732.17 1240.63 2718.26 1242.7 2705.23 1244.78C2692.22 1246.85 2680.08 1248.93 2670.24 1248.93C2654.77 1248.93 2645.01 1243.81 2646.47 1225.49C2650.84 1170.61 2723.33 1185.96 2738.71 1142.05C2748.97 1112.76 2783.63 1107.88 2805.59 1107.88C2816.56 1107.88 2824.37 1109.1 2824.37 1109.1C2828.35 1107.58 2832.63 1106.59 2837.16 1106.2H2837.18C2884.56 1139.17 2927.38 1178.18 2964.58 1222.16C2984.11 1245.26 3002.11 1269.71 3018.35 1295.38C3028.46 1311.36 3037.92 1327.75 3046.69 1344.63C3035.36 1350.14 3025.08 1352.38 3015.62 1352.38Z" fill="#B1CAFF"/>
<path d="M2366.07 1240.51C2341.76 1240.51 2318.31 1186.4 2290.65 1155.22C2258.21 1118.67 2272.12 1085 2312.02 1085C2314.65 1085 2317.43 1085.15 2320.31 1085.46C2325.38 1086.01 2329.89 1086.22 2333.96 1086.22C2345.14 1086.22 2353.1 1084.51 2360.79 1082.79C2368.48 1081.09 2375.9 1079.36 2386.03 1079.36C2395.63 1079.36 2407.65 1080.92 2424.61 1085.46C2483.92 1101.35 2446.59 1155.22 2446.59 1155.22C2409.8 1159.06 2415.85 1189.27 2384.54 1229.15C2378.27 1237.13 2372.15 1240.51 2366.07 1240.51Z" fill="#B1CAFF"/>
<path d="M998.921 2317.05C939.492 2221.16 818.244 2104.8 812.204 2073.68C812.144 2073.36 812.085 2073.05 812.032 2072.75C809.681 2059.49 820.331 2049.32 831.748 2049.32C836.077 2049.32 840.519 2050.79 844.401 2054.11C950.636 2144.83 998.921 2317.05 998.921 2317.05Z" fill="#D8E8FD"/>
<path d="M1011.56 2355.89C1009.54 2355.31 1007.26 2354.65 1004.75 2353.95C896.072 2258.61 719.121 2161.88 701.63 2126.64C694.804 2112.88 695.19 2103.33 698.342 2096.76C701.869 2089.41 709.358 2085.24 717.13 2085.24C720.024 2085.24 722.958 2085.83 725.74 2087.03C872.009 2150.68 984.694 2314.35 1011.56 2355.89Z" fill="#D8E8FD"/>
<path d="M2444.25 1423.52L2443.72 2930.04C2443.72 2979.53 2403.58 3019.64 2354.11 3019.63L1566.58 3019.36C1517.08 3019.33 1476.97 2979.2 1476.98 2929.71L1477.5 1423.19C1477.52 1373.7 1517.65 1333.6 1567.15 1333.62L2354.69 1333.89C2404.15 1333.9 2444.26 1374.05 2444.25 1423.52Z" fill="#C2CFFF"/>
<path d="M1567.15 1344.85C1523.93 1344.84 1488.77 1379.99 1488.75 1423.19L1488.24 2929.72C1488.21 2972.93 1523.36 3008.09 1566.58 3008.11L2354.1 3008.39C2397.31 3008.4 2432.49 2973.25 2432.49 2930.05L2433.01 1423.52C2433.03 1380.3 2397.88 1345.14 2354.68 1345.13L1567.15 1344.85ZM2354.09 3030.88L1566.56 3030.6C1510.94 3030.59 1465.72 2985.32 1465.73 2929.72L1466.25 1423.19C1466.28 1367.57 1511.53 1322.35 1567.15 1322.36L2354.68 1322.63C2410.3 1322.65 2455.52 1367.92 2455.5 1423.52L2454.99 2930.05C2454.98 2985.67 2409.71 3030.89 2354.09 3030.88Z" fill="#163560"/>
<path d="M1624.45 1476.73L1611.21 1486.24L1597.91 1476.83C1600.85 1472.68 1605.73 1469.95 1611.23 1469.95C1616.68 1469.95 1621.51 1472.61 1624.45 1476.73Z" fill="white"/>
<path d="M1611.23 1446.79C1597.92 1446.79 1586.15 1453.4 1579.01 1463.52L1587.41 1469.41C1592.69 1461.95 1601.41 1457.08 1611.23 1457.08C1620.96 1457.08 1629.61 1461.88 1634.89 1469.27L1643.27 1463.27C1636.09 1453.28 1624.4 1446.79 1611.23 1446.79Z" fill="white"/>
<path d="M1611.24 1402.77C1583.08 1402.77 1558.17 1416.76 1543.07 1438.16L1551.48 1444.05C1564.72 1425.33 1586.57 1413.05 1611.24 1413.07C1635.69 1413.08 1657.4 1425.16 1670.68 1443.65L1679.01 1437.65C1663.89 1416.55 1639.16 1402.79 1611.24 1402.77Z" fill="white"/>
<path d="M1611.24 1426.85C1591.2 1426.85 1573.43 1436.76 1562.63 1451.95L1571.03 1457.85C1579.97 1445.33 1594.67 1437.15 1611.23 1437.15C1627.67 1437.16 1642.24 1445.21 1651.23 1457.57L1659.56 1451.61C1648.72 1436.61 1631.09 1426.87 1611.24 1426.85Z" fill="white"/>
<path d="M1788.03 1176.89C1788.03 1176.89 1730.6 1149.29 1656.4 1164.45C1656.4 1164.45 1741.27 1158.65 1791.59 1212.52C1791.59 1212.52 1826.79 1158.56 1884.96 1146.19C1884.96 1146.19 1841.61 1141.01 1788.03 1176.89Z" fill="#9FC1F4"/>
<path d="M1626.19 1150.89C1626.19 1150.89 1581.89 1129.29 1524.44 1140.68C1524.44 1140.68 1590.11 1136.59 1628.77 1178.47C1628.77 1178.47 1656.24 1136.89 1701.29 1127.59C1701.29 1127.59 1667.79 1123.39 1626.19 1150.89Z" fill="#9FC1F4"/>
<path d="M1483.32 1131.2C1483.32 1131.2 1442.2 1113.27 1390.37 1125.83C1390.37 1125.83 1449.95 1119.57 1486.75 1156.19C1486.75 1156.19 1510.12 1117.31 1550.73 1107.11C1550.73 1107.11 1520.11 1104.59 1483.32 1131.2Z" fill="#9FC1F4"/>
<path d="M1403.22 1089.88C1403.22 1089.88 1374.37 1080.38 1340.21 1092.12C1340.21 1092.12 1379.99 1084.15 1407.11 1106.51C1407.11 1106.51 1420.43 1078.83 1447.18 1069.38C1447.18 1069.38 1426.35 1069.61 1403.22 1089.88Z" fill="#9FC1F4"/>
<path d="M1689.95 988.286C1689.95 988.286 1661.61 977.299 1626.89 987.249C1626.89 987.249 1667.03 981.349 1692.96 1005.1C1692.96 1005.1 1707.69 978.14 1734.89 970.109C1734.89 970.109 1714.09 969.254 1689.95 988.286Z" fill="#9FC1F4"/>
<path d="M1829.55 1086.15C1829.55 1086.15 1790.02 1066.22 1738.28 1075.77C1738.28 1075.77 1797.3 1072.87 1831.54 1110.96C1831.54 1110.96 1856.72 1073.93 1897.29 1066.12C1897.29 1066.12 1867.24 1061.95 1829.55 1086.15Z" fill="#9FC1F4"/>
<path d="M1774.46 1024.29C1774.46 1024.29 1737.24 1007.26 1689.77 1017.88C1689.77 1017.88 1744.21 1013.15 1777.17 1047.14C1777.17 1047.14 1799.12 1012.06 1836.35 1003.42C1836.35 1003.42 1808.44 1000.62 1774.46 1024.29Z" fill="#9FC1F4"/>
<path d="M2854.64 1582.18C2854.64 1546.07 2884.08 1516.63 2920.2 1516.63C2956.46 1516.63 2985.74 1546.07 2985.74 1582.18C2985.74 1618.46 2956.46 1647.73 2920.2 1647.73C2884.08 1647.73 2854.64 1618.46 2854.64 1582.18ZM2808.95 1589.2C2808.95 1655.25 2920.2 1760.85 2920.2 1760.85C2920.2 1760.85 3031.43 1655.25 3031.43 1589.2C3031.43 1523.14 2981.63 1469.57 2920.2 1469.57C2858.75 1469.57 2808.95 1523.14 2808.95 1589.2Z" fill="#F78E48"/>
<path d="M2472.98 1162C2472.98 1127.32 2501.27 1099.04 2535.95 1099.04C2570.79 1099.04 2598.91 1127.32 2598.91 1162C2598.91 1196.86 2570.79 1224.96 2535.95 1224.96C2501.27 1224.96 2472.98 1196.86 2472.98 1162ZM2429.09 1168.74C2429.09 1232.19 2535.95 1333.62 2535.95 1333.62C2535.95 1333.62 2642.8 1232.19 2642.8 1168.74C2642.8 1105.29 2594.95 1053.84 2535.95 1053.84C2476.93 1053.84 2429.09 1105.29 2429.09 1168.74Z" fill="#F78E48"/>
<path d="M2588.34 2190.79L2556.11 2200.44C2555.05 2200.76 2553.92 2200.16 2553.6 2199.08L2535.19 2137.66C2534.87 2136.59 2535.47 2135.46 2536.55 2135.14L2568.76 2125.48C2569.83 2125.16 2570.95 2125.78 2571.27 2126.84L2589.69 2188.27C2590 2189.34 2589.4 2190.47 2588.34 2190.79Z" fill="#F1A34F"/>
<path d="M2579.96 2193.29L2550.74 2202.06C2548.86 2202.62 2546.84 2201.55 2546.29 2199.66L2528.76 2141.22C2528.19 2139.32 2529.27 2137.32 2531.17 2136.75L2560.39 2127.99C2562.29 2127.43 2564.29 2128.5 2564.86 2130.4L2582.37 2188.83C2582.94 2190.74 2581.86 2192.72 2579.96 2193.29Z" fill="#D86713"/>
<path d="M2739.55 2181.5C2739.55 2181.5 2738.16 2235.08 2722.68 2278.35C2710.49 2312.51 2689.5 2340.22 2653.53 2329.98C2649.85 2328.94 2646.29 2327.8 2642.83 2326.6L2642.78 2326.58C2569.67 2301.11 2546.02 2242.83 2546.02 2242.83C2551.48 2233.84 2567.23 2230.54 2567.23 2230.54C2581.95 2231.34 2646.66 2258.8 2650.78 2259.64C2665.75 2262.64 2677.84 2180.42 2687.57 2151.94C2697.28 2123.44 2737.08 2110.7 2737.08 2110.7L2739.55 2181.5Z" fill="#739AF0"/>
<path d="M2893.35 2465.55C2893.35 2465.55 2875.37 2474.61 2843.56 2477.28H2843.55C2807.14 2480.34 2752.62 2474.97 2686.23 2438C2686.23 2438 2667.69 2422.74 2690.45 2357.84C2707.66 2308.7 2716.06 2205.11 2737.09 2110.7C2737.09 2110.7 2805.29 2089.3 2859.99 2107.79C2901.81 2121.94 2897.65 2186.08 2905.37 2252.9C2906.09 2259.14 2906.89 2265.39 2907.88 2271.63C2919.29 2344.76 2893.35 2465.55 2893.35 2465.55Z" fill="#739AF0"/>
<path d="M2713.04 1970.92C2713.04 1970.92 2759.6 1895.16 2795.64 1934.15C2795.64 1934.15 2819.22 1940.17 2832.7 1976.85C2846.48 2014.29 2825.02 2047.35 2810.7 2042C2801.51 2038.59 2797.23 2054.41 2797.23 2054.41L2713.04 1970.92Z" fill="#233862"/>
<path d="M2788.52 1928.17C2788.52 1928.17 2791.71 1896.8 2837.56 1899.85C2837.56 1899.85 2815.88 1900.24 2811.22 1909.28C2811.22 1909.28 2826.98 1899.12 2838.47 1904.07C2849.98 1909.01 2854.85 1930.52 2854.23 1937.37C2853.6 1944.22 2844.78 1965.62 2837.05 1966.73C2829.33 1967.85 2819.19 1962.38 2819.19 1962.38L2788.52 1928.17Z" fill="#233862"/>
<path d="M2811.6 2105.87C2807.29 2094.4 2800.89 2082.35 2795.73 2045.71L2792.99 2046.67L2746.71 2062.97C2746.71 2062.97 2749.95 2077.8 2752.02 2091.92C2752.86 2097.68 2753.49 2107.99 2753.86 2116.99C2754.28 2126.17 2763.32 2127.05 2772.51 2126.63C2796.97 2125.49 2810.46 2116.36 2811.6 2105.87Z" fill="#FFB27D"/>
<path d="M2746.71 2062.97C2746.71 2062.97 2749.97 2077.8 2752.04 2091.92C2778.58 2087.32 2789.16 2060.97 2792.99 2046.66L2746.71 2062.97Z" fill="#E8945B"/>
<path d="M2797.16 2040.77C2797.16 2040.77 2807.95 2016.69 2808.59 1997.34C2809.03 1983.52 2794.97 1934.57 2745.82 1949C2745.82 1949 2731.47 1952.53 2719.09 1963.77C2709.25 1972.69 2695.83 1990.85 2719.68 2031.89L2726.36 2045.94L2797.16 2040.77Z" fill="#233862"/>
<path d="M2739.74 2077.63C2739.74 2077.63 2802.95 2069.57 2797.34 2030.28C2791.7 1991 2796.09 1963.51 2755.49 1966.99C2714.89 1970.47 2709.21 1986.57 2707.91 2000.13C2706.58 2013.71 2723.14 2078.71 2739.74 2077.63Z" fill="#FFB27D"/>
<path d="M2726.63 1970.16C2726.63 1970.16 2750.54 2013.76 2778.01 2016.74C2805.5 2019.74 2815.97 2010.98 2815.97 2010.98C2815.97 2010.98 2793.33 1997.77 2785.04 1970.2C2785.04 1970.2 2736.5 1946.34 2726.63 1970.16Z" fill="#233862"/>
<path d="M2731.45 1973.28C2731.45 1973.28 2720.03 1985.43 2718.32 1995.9C2716.63 2006.35 2718.17 2027.14 2712.09 2027.31C2712.09 2027.31 2694.55 1997.86 2706.61 1978.03C2719.41 1957 2731.45 1973.28 2731.45 1973.28Z" fill="#233862"/>
<path d="M2729.28 1975.19C2729.28 1975.19 2748.53 2021.67 2784.19 2032.31C2784.19 2032.31 2746.49 2007.48 2739.05 1976.03C2731.62 1944.59 2729.28 1975.19 2729.28 1975.19Z" fill="#233862"/>
<path d="M2860 2107.79C2925.08 2131.74 2927.48 2247.03 2956.49 2297.82C2986.43 2350.18 3015.57 2419.11 3015.57 2419.11C3015.57 2419.11 3015.05 2421.16 3003.89 2424.36C2996.01 2426.62 2987.81 2425.66 2987.81 2425.66C2987.81 2425.66 2926.34 2370.03 2909.61 2348.1C2892.91 2326.15 2853.52 2224.34 2853.52 2224.34C2853.52 2224.34 2834.17 2098.28 2860 2107.79Z" fill="#739AF0"/>
<path d="M2432.74 2727.18H1488.25V2043.46H2432.74V2727.18Z" fill="#F78E48"/>
<path d="M1572.81 1598.64C1572.81 1598.64 1594.68 1549.95 1646.99 1555.35C1646.99 1555.35 1722.91 1474.19 1803.88 1544.53C1803.88 1544.53 1889.95 1527.09 1953.68 1559.63C1996.17 1581.31 2010.21 1604.05 2010.21 1604.05L1572.81 1598.64Z" fill="#EBF3FA"/>
<path d="M1880.85 1483.52C1881.13 1483.51 1881.4 1483.51 1881.68 1483.51C1884.99 1483.44 1888.17 1482.25 1890.63 1480.01C1901.63 1469.96 1935.13 1444.95 1971.21 1473.68C1974.04 1475.93 1977.68 1476.87 1981.25 1476.35C1995.19 1474.31 2031.6 1471.01 2060.11 1486.28C2060.88 1486.69 2061.64 1487.11 2062.39 1487.53C2074.25 1494.19 2069.27 1512.33 2055.67 1512.16L1881.24 1509.89C1864.15 1509.67 1863.77 1484.16 1880.85 1483.52Z" fill="#EBF3FA"/>
<path d="M2129.05 2119.62C2100.01 2119.62 2076.38 2143.26 2076.38 2172.3V2568.23C2076.38 2597.27 2100.01 2620.9 2129.05 2620.9H2316.54C2345.58 2620.9 2369.2 2597.27 2369.2 2568.23V2172.3C2369.2 2143.26 2345.58 2119.62 2316.54 2119.62H2129.05ZM2316.54 2626.88H2129.05C2096.71 2626.88 2070.4 2600.58 2070.4 2568.23V2172.3C2070.4 2139.95 2096.71 2113.64 2129.05 2113.64H2316.54C2348.88 2113.64 2375.19 2139.95 2375.19 2172.3V2568.23C2375.19 2600.58 2348.88 2626.88 2316.54 2626.88Z" fill="#FFE3CA"/>
<path d="M1985.39 2371.72H1714.52C1690.68 2371.72 1671.36 2352.4 1671.36 2328.56V2159.79C1671.36 2135.95 1690.68 2116.63 1714.52 2116.63H1985.39C2009.21 2116.63 2028.53 2135.95 2028.53 2159.79V2328.56C2028.53 2352.4 2009.21 2371.72 1985.39 2371.72Z" fill="#FFE3CA"/>
<path d="M2705.42 876.068H2705.19C2700.44 875.691 2695.74 875.673 2691.2 875.978C2689.53 876.086 2688.12 874.83 2688.01 873.18C2687.9 871.53 2689.14 870.113 2690.79 870.006C2695.63 869.683 2700.6 869.701 2705.64 870.095C2707.31 870.221 2708.53 871.656 2708.4 873.306C2708.29 874.866 2706.98 876.068 2705.42 876.068ZM2733.67 881.735C2733.33 881.735 2732.99 881.681 2732.65 881.556C2730.44 880.749 2728.17 880.049 2725.92 879.493C2723.63 878.937 2721.35 878.435 2719.14 877.987C2717.53 877.664 2716.47 876.104 2716.79 874.471C2717.12 872.857 2718.68 871.799 2720.31 872.122C2722.59 872.571 2724.97 873.108 2727.36 873.682C2729.82 874.292 2732.27 875.045 2734.69 875.924C2736.25 876.498 2737.04 878.22 2736.49 879.762C2736.06 880.982 2734.91 881.735 2733.67 881.735ZM2662.94 882.309C2661.75 882.309 2660.62 881.592 2660.16 880.426C2659.55 878.883 2660.3 877.144 2661.84 876.534C2666.47 874.687 2671.26 873.216 2676.07 872.14C2677.66 871.763 2679.28 872.786 2679.63 874.4C2679.99 875.996 2678.99 877.61 2677.37 877.969C2672.89 878.991 2668.39 880.372 2664.05 882.094C2663.69 882.237 2663.31 882.309 2662.94 882.309ZM2758.38 896.083C2757.72 896.083 2757.06 895.867 2756.5 895.419C2752.75 892.406 2748.92 889.734 2745.1 887.474C2743.68 886.631 2743.21 884.802 2744.06 883.385C2744.88 881.95 2746.71 881.484 2748.14 882.327C2752.22 884.712 2756.29 887.564 2760.27 890.756C2761.54 891.796 2761.76 893.679 2760.72 894.971C2760.11 895.706 2759.25 896.083 2758.38 896.083ZM2637.92 896.513C2636.99 896.513 2636.11 896.101 2635.52 895.311C2634.51 893.984 2634.8 892.119 2636.11 891.115C2640.16 888.102 2644.32 885.358 2648.48 882.99C2649.9 882.165 2651.73 882.668 2652.55 884.102C2653.36 885.537 2652.88 887.366 2651.44 888.191C2647.5 890.433 2643.55 893.034 2639.69 895.921C2639.17 896.316 2638.53 896.513 2637.92 896.513ZM2616.65 915.99C2615.93 915.99 2615.2 915.721 2614.62 915.201C2613.4 914.089 2613.33 912.188 2614.44 910.968C2617.83 907.274 2621.31 903.759 2624.79 900.566C2626.01 899.436 2627.89 899.526 2629.02 900.728C2630.14 901.947 2630.06 903.848 2628.84 904.96C2625.51 908.045 2622.14 911.434 2618.85 915.021C2618.26 915.667 2617.46 915.99 2616.65 915.99ZM2778.65 916.492C2777.79 916.492 2776.93 916.133 2776.34 915.416C2773.22 911.632 2770.04 908.081 2766.89 904.871C2765.72 903.705 2765.74 901.804 2766.92 900.638C2768.11 899.49 2769.99 899.49 2771.15 900.674C2774.44 904.01 2777.74 907.686 2780.95 911.614C2782 912.887 2781.83 914.77 2780.53 915.828C2780 916.277 2779.31 916.492 2778.65 916.492ZM2598.64 938.534C2598.05 938.534 2597.44 938.372 2596.92 937.996C2595.58 937.045 2595.25 935.18 2596.2 933.817C2599.07 929.728 2602.01 925.8 2604.94 922.124C2605.98 920.832 2607.86 920.617 2609.15 921.639C2610.44 922.662 2610.66 924.545 2609.64 925.854C2606.78 929.423 2603.9 933.279 2601.08 937.278C2600.51 938.103 2599.57 938.534 2598.64 938.534ZM2795.4 940.004C2794.42 940.004 2793.43 939.52 2792.87 938.605C2790.27 934.462 2787.6 930.463 2784.96 926.715C2784 925.37 2784.32 923.504 2785.66 922.554C2787.03 921.603 2788.89 921.908 2789.84 923.253C2792.55 927.091 2795.29 931.181 2797.95 935.431C2798.83 936.83 2798.4 938.677 2797 939.556C2796.5 939.861 2795.96 940.004 2795.4 940.004ZM2583.16 962.907C2582.66 962.907 2582.14 962.781 2581.68 962.512C2580.24 961.687 2579.76 959.858 2580.58 958.423C2583.06 954.119 2585.59 949.922 2588.1 945.958C2588.99 944.56 2590.84 944.147 2592.24 945.026C2593.64 945.905 2594.05 947.77 2593.17 949.151C2590.68 953.061 2588.19 957.186 2585.77 961.418C2585.21 962.369 2584.2 962.907 2583.16 962.907ZM2809.64 965.184C2808.55 965.184 2807.49 964.593 2806.97 963.552C2804.75 959.212 2802.47 954.962 2800.19 950.909C2799.37 949.474 2799.87 947.644 2801.32 946.837C2802.76 946.03 2804.58 946.533 2805.39 947.985C2807.72 952.092 2810.04 956.414 2812.3 960.826C2813.05 962.297 2812.46 964.108 2810.99 964.862C2810.56 965.077 2810.09 965.184 2809.64 965.184ZM2569.62 988.41C2569.18 988.41 2568.73 988.302 2568.3 988.105C2566.83 987.369 2566.22 985.576 2566.93 984.087C2569.12 979.658 2571.35 975.299 2573.53 971.156C2574.32 969.686 2576.13 969.13 2577.59 969.901C2579.04 970.69 2579.61 972.502 2578.84 973.954C2576.65 978.061 2574.47 982.366 2572.31 986.742C2571.78 987.8 2570.74 988.41 2569.62 988.41ZM2821.96 991.351C2820.82 991.351 2819.72 990.669 2819.22 989.557C2817.26 985.056 2815.26 980.644 2813.28 976.447C2812.6 974.959 2813.23 973.165 2814.74 972.466C2816.22 971.766 2818.02 972.412 2818.7 973.901C2820.71 978.151 2822.73 982.617 2824.71 987.154C2825.37 988.679 2824.67 990.436 2823.16 991.1C2822.79 991.261 2822.38 991.351 2821.96 991.351ZM2557.59 1014.67C2557.18 1014.67 2556.78 1014.58 2556.39 1014.41C2554.88 1013.77 2554.18 1012.01 2554.83 1010.49C2556.76 1005.97 2558.76 1001.5 2560.71 997.216C2561.41 995.709 2563.19 995.063 2564.67 995.745C2566.18 996.426 2566.84 998.202 2566.16 999.708C2564.21 1003.96 2562.25 1008.37 2560.33 1012.85C2559.83 1013.98 2558.74 1014.67 2557.59 1014.67ZM2832.87 1018.14C2831.67 1018.14 2830.54 1017.41 2830.07 1016.23C2828.35 1011.65 2826.57 1007.15 2824.81 1002.81C2824.19 1001.29 2824.92 999.547 2826.45 998.919C2827.99 998.292 2829.73 999.027 2830.36 1000.57C2832.13 1004.95 2833.91 1009.5 2835.68 1014.09C2836.26 1015.63 2835.47 1017.36 2833.94 1017.95C2833.58 1018.09 2833.23 1018.14 2832.87 1018.14ZM2548.93 1035.76C2548.57 1035.76 2548.19 1035.68 2547.83 1035.54C2546.31 1034.95 2545.54 1033.21 2546.15 1031.67C2547.19 1029.03 2548.21 1026.43 2549.25 1023.88C2549.86 1022.34 2551.6 1021.61 2553.14 1022.22C2554.67 1022.84 2555.4 1024.58 2554.79 1026.13C2553.77 1028.65 2552.75 1031.24 2551.71 1033.86C2551.26 1035.04 2550.13 1035.76 2548.93 1035.76ZM2842.64 1045.39C2841.4 1045.39 2840.22 1044.6 2839.81 1043.34C2838.25 1038.77 2836.67 1034.2 2835.06 1029.73C2834.5 1028.19 2835.32 1026.47 2836.87 1025.91C2838.43 1025.35 2840.15 1026.16 2840.7 1027.72C2842.3 1032.21 2843.91 1036.81 2845.48 1041.44C2846.01 1043 2845.17 1044.71 2843.59 1045.23C2843.27 1045.33 2842.96 1045.39 2842.64 1045.39ZM2851.48 1072.93C2850.19 1072.93 2849.01 1072.11 2848.61 1070.82C2847.21 1066.21 2845.76 1061.56 2844.31 1057.05C2843.81 1055.47 2844.67 1053.8 2846.25 1053.28C2847.82 1052.78 2849.51 1053.66 2850.03 1055.22C2851.48 1059.77 2852.94 1064.43 2854.33 1069.08C2854.82 1070.66 2853.92 1072.33 2852.36 1072.81C2852.06 1072.9 2851.77 1072.93 2851.48 1072.93ZM2859.54 1100.73C2858.23 1100.73 2857.04 1099.85 2856.67 1098.53C2855.37 1093.88 2854.07 1089.26 2852.72 1084.65C2852.27 1083.07 2853.19 1081.4 2854.77 1080.93C2856.36 1080.49 2858.03 1081.4 2858.48 1082.98C2859.82 1087.61 2861.15 1092.27 2862.44 1096.93C2862.87 1098.53 2861.94 1100.18 2860.34 1100.63C2860.07 1100.7 2859.8 1100.73 2859.54 1100.73ZM2866.96 1128.71C2865.62 1128.71 2864.4 1127.8 2864.06 1126.45C2862.87 1121.77 2861.67 1117.11 2860.43 1112.46C2860 1110.87 2860.97 1109.23 2862.57 1108.8C2864.16 1108.39 2865.79 1109.34 2866.23 1110.94C2867.46 1115.6 2868.68 1120.28 2869.87 1124.98C2870.26 1126.58 2869.31 1128.21 2867.7 1128.6C2867.44 1128.68 2867.19 1128.71 2866.96 1128.71ZM2873.79 1156.87C2872.45 1156.87 2871.21 1155.94 2870.89 1154.56C2869.79 1149.86 2868.68 1145.16 2867.53 1140.46C2867.14 1138.86 2868.13 1137.23 2869.74 1136.85C2871.34 1136.46 2872.95 1137.45 2873.36 1139.04C2874.51 1143.76 2875.62 1148.48 2876.72 1153.19C2877.09 1154.81 2876.09 1156.4 2874.49 1156.78C2874.24 1156.83 2874.03 1156.87 2873.79 1156.87ZM2880.12 1185.06C2878.74 1185.06 2877.51 1184.11 2877.2 1182.71C2876.2 1178.01 2875.17 1173.33 2874.12 1168.63C2873.76 1167.02 2874.76 1165.42 2876.38 1165.06C2877.99 1164.69 2879.59 1165.71 2879.96 1167.32C2881 1172.04 2882.04 1176.74 2883.07 1181.44C2883.41 1183.05 2882.38 1184.65 2880.75 1185.01C2880.54 1185.04 2880.34 1185.06 2880.12 1185.06ZM2886.01 1213.4C2884.61 1213.4 2883.35 1212.41 2883.08 1211C2882.13 1206.3 2881.18 1201.58 2880.2 1196.84C2879.86 1195.21 2880.9 1193.63 2882.51 1193.29C2884.14 1192.95 2885.72 1194.01 2886.04 1195.63C2887.03 1200.38 2888.02 1205.11 2888.95 1209.83C2889.27 1211.44 2888.23 1213.02 2886.6 1213.34C2886.4 1213.38 2886.2 1213.4 2886.01 1213.4ZM2891.5 1241.82C2890.08 1241.82 2888.8 1240.82 2888.54 1239.39C2887.67 1234.69 2886.78 1229.93 2885.86 1225.18C2885.54 1223.55 2886.62 1221.99 2888.23 1221.68C2889.86 1221.36 2891.42 1222.42 2891.75 1224.05C2892.66 1228.82 2893.56 1233.57 2894.44 1238.29C2894.72 1239.91 2893.67 1241.47 2892.03 1241.77C2891.85 1241.81 2891.66 1241.82 2891.5 1241.82ZM2896.59 1270.32C2895.15 1270.32 2893.88 1269.3 2893.63 1267.83C2892.82 1263.13 2892 1258.4 2891.14 1253.61C2890.85 1251.98 2891.93 1250.42 2893.56 1250.13C2895.19 1249.84 2896.75 1250.92 2897.02 1252.55C2897.9 1257.36 2898.72 1262.11 2899.55 1266.83C2899.82 1268.46 2898.72 1270 2897.09 1270.29C2896.93 1270.3 2896.75 1270.32 2896.59 1270.32ZM2901.32 1298.87C2899.89 1298.87 2898.62 1297.83 2898.38 1296.36C2897.63 1291.66 2896.86 1286.91 2896.05 1282.09C2895.78 1280.46 2896.89 1278.91 2898.51 1278.64C2900.12 1278.38 2901.68 1279.49 2901.95 1281.1C2902.76 1285.94 2903.55 1290.71 2904.28 1295.41C2904.55 1297.04 2903.46 1298.59 2901.81 1298.84C2901.65 1298.87 2901.48 1298.87 2901.32 1298.87ZM2905.75 1327.5C2904.3 1327.5 2903.03 1326.44 2902.79 1324.95C2902.09 1320.27 2901.38 1315.5 2900.64 1310.64C2900.39 1309.01 2901.5 1307.48 2903.13 1307.23C2904.75 1306.98 2906.29 1308.09 2906.54 1309.74C2907.3 1314.6 2908.03 1319.37 2908.71 1324.07C2908.96 1325.7 2907.83 1327.23 2906.2 1327.46C2906.04 1327.5 2905.9 1327.5 2905.75 1327.5ZM2909.86 1356.18C2908.39 1356.18 2907.1 1355.1 2906.9 1353.59C2906.26 1348.95 2905.59 1344.18 2904.89 1339.26C2904.66 1337.63 2905.79 1336.11 2907.44 1335.87C2909.07 1335.64 2910.58 1336.77 2910.81 1338.42C2911.51 1343.33 2912.17 1348.12 2912.84 1352.77C2913.05 1354.42 2911.92 1355.92 2910.27 1356.14C2910.13 1356.18 2910 1356.18 2909.86 1356.18ZM2913.64 1384.91C2912.17 1384.91 2910.88 1383.81 2910.68 1382.29C2910.11 1377.71 2909.48 1372.93 2908.84 1367.94C2908.62 1366.29 2909.77 1364.8 2911.4 1364.57C2913.05 1364.35 2914.56 1365.52 2914.77 1367.15C2915.42 1372.15 2916.05 1376.96 2916.62 1381.55C2916.84 1383.18 2915.67 1384.67 2914.04 1384.89C2913.9 1384.91 2913.79 1384.91 2913.64 1384.91ZM2917.12 1413.73C2915.62 1413.73 2914.31 1412.6 2914.15 1411.07C2913.64 1406.7 2913.09 1401.89 2912.46 1396.67C2912.26 1395.04 2913.43 1393.55 2915.08 1393.34C2916.69 1393.16 2918.22 1394.32 2918.4 1395.95C2919.04 1401.19 2919.6 1406.02 2920.08 1410.39C2920.28 1412.04 2919.1 1413.53 2917.46 1413.71L2917.12 1413.73ZM2920.19 1442.76C2918.67 1442.76 2917.36 1441.6 2917.21 1440.04C2917.21 1439.98 2916.73 1434.76 2915.74 1425.51C2915.56 1423.86 2916.75 1422.39 2918.4 1422.21C2920.03 1422.03 2921.52 1423.23 2921.7 1424.86C2922.68 1434.17 2923.17 1439.45 2923.17 1439.5C2923.33 1441.13 2922.11 1442.6 2920.46 1442.75L2920.19 1442.76Z" fill="#F78E48"/>
<path d="M1488.64 1772.72C1488.64 1772.72 1529.41 1769.9 1538.29 1801.89C1538.29 1801.89 1569.7 1737.91 1636.03 1743.18C1702.34 1748.45 1714.59 1787.46 1714.59 1787.46C1714.59 1787.46 1752.59 1774.41 1784.16 1791.81C1815.7 1809.22 1813.68 1841.13 1813.68 1841.13C1813.68 1841.13 1842.61 1800.51 1900.77 1815.02C1900.77 1815.02 1889.18 1756.3 1959.1 1742.87C2029.04 1729.45 2058.74 1752.66 2058.74 1752.66C2058.74 1752.66 2137.94 1701.64 2208.06 1765.58C2208.06 1765.58 2259.43 1755.61 2284.55 1787.25C2284.55 1787.25 2336.03 1725.06 2432.85 1735.99V2043.47H1488.24L1488.64 1772.72Z" fill="#D7E2FF"/>
<path d="M1488.63 1926.16C1488.63 1926.16 1557.2 1908.81 1618.41 1949.21C1618.41 1949.21 1633.33 1931.44 1672.19 1935.84C1711.05 1940.24 1721.75 1976.13 1721.75 1976.13C1721.75 1976.13 1857.71 1931.24 1925.03 2043.47H1488.24L1488.63 1926.16Z" fill="#EBF3FA"/>
<path d="M2008.68 2043.47C2008.68 2043.47 2012.14 1974.66 2084.01 1958.19C2084.01 1958.19 2046.79 1941.74 2065.55 1900.84C2084.31 1859.95 2129.87 1856.95 2129.87 1856.95C2129.87 1856.95 2134.64 1782.96 2263.81 1795.74C2300.08 1799.33 2338.47 1821.05 2344.49 1858.95C2344.49 1858.95 2358.49 1835.9 2387.52 1837.45C2387.52 1837.45 2391.1 1795.38 2432.83 1795.74V2043.47H2008.68Z" fill="#EBF3FA"/>
<path d="M2372.19 1451.75L2317.98 1639.59L2316.26 1639.38L2131 1616.88C2131 1616.88 2216.81 1599.03 2225.73 1588.74C2234.13 1579.03 2323.22 1463.93 2349.29 1451.61C2350.89 1450.86 2352.24 1450.49 2353.35 1450.57C2372.19 1451.75 2372.19 1451.75 2372.19 1451.75Z" fill="#739AF0"/>
<path d="M2316.27 1639.39L2131 1616.88C2131 1616.88 2216.8 1599.03 2225.73 1588.73C2234.13 1579.03 2323.21 1463.93 2349.29 1451.62C2326.21 1485.12 2272.73 1565.64 2274.99 1589.06C2277.16 1611.36 2303.25 1630.93 2316.27 1639.39Z" fill="#2B478B"/>
<path d="M2336.27 1695.94C2329.96 1698.11 2311.06 1704.06 2285.12 1711.6C2210.57 1733.29 2077.95 1768.11 2019.44 1763.8C1966.94 1759.95 1689.29 1738.75 1497.25 1721.92C1543.73 1640.3 1601.65 1595.21 1654.67 1570.5C1878.44 1588.84 2171.06 1613.6 2208.28 1620.8C2269.52 1632.64 2350.78 1642.27 2350.78 1642.27C2350.78 1642.27 2351.31 1644.75 2351.85 1648.68C2353.56 1661.48 2355.02 1689.5 2336.27 1695.94Z" fill="#E58638"/>
<path d="M2352.81 1662.27C2352.79 1662.74 2352.79 1663.21 2352.78 1663.69C2352.62 1673.88 2350.56 1685.24 2343.34 1691.78C2343.11 1692.01 2342.85 1692.23 2342.59 1692.44C2342.08 1692.85 2341.53 1693.25 2341 1693.63H2340.99V1693.64C2340.71 1693.81 2340.41 1693.99 2340.12 1694.17C2339.83 1694.33 2339.54 1694.51 2339.24 1694.66H2339.22C2338.91 1694.84 2338.6 1694.98 2338.29 1695.13C2337.97 1695.27 2337.64 1695.43 2337.3 1695.56C2336.99 1695.69 2336.64 1695.82 2336.29 1695.94L2335.98 1696.04L2335.66 1696.15L2335.33 1696.25V1696.27C2335.21 1696.3 2335.08 1696.34 2334.97 1696.38V1696.4C2334.84 1696.43 2334.71 1696.45 2334.58 1696.51C2334.45 1696.56 2334.32 1696.6 2334.2 1696.64H2334.19C2334.04 1696.69 2333.91 1696.73 2333.78 1696.79C2333.64 1696.83 2333.49 1696.87 2333.34 1696.92H2333.32C2333.18 1696.97 2333.05 1697.02 2332.89 1697.06C2332.74 1697.12 2332.58 1697.16 2332.44 1697.22C2332.11 1697.32 2331.78 1697.44 2331.44 1697.54H2331.43C2331.27 1697.6 2331.1 1697.64 2330.94 1697.7H2330.92V1697.71C2330.75 1697.77 2330.56 1697.83 2330.39 1697.87C2330.26 1697.91 2330.15 1697.96 2330 1698C2328.6 1698.45 2327.04 1698.95 2325.34 1699.49C2325.02 1699.59 2324.7 1699.67 2324.37 1699.79C2319.88 1701.2 2314.44 1702.88 2308.19 1704.77C2307.54 1704.96 2306.91 1705.16 2306.23 1705.36C2305.14 1705.69 2304.02 1706.02 2302.88 1706.37C2302.63 1706.43 2302.39 1706.52 2302.13 1706.59C2301.8 1706.69 2301.44 1706.79 2301.09 1706.91C2300.74 1707.01 2300.38 1707.11 2300.02 1707.21C2299.66 1707.32 2299.3 1707.42 2298.94 1707.54C2298.59 1707.64 2298.22 1707.76 2297.86 1707.86C2297.48 1707.97 2297.13 1708.07 2296.77 1708.19C2296.38 1708.29 2296.01 1708.41 2295.65 1708.52C2295.27 1708.62 2294.88 1708.74 2294.52 1708.84V1708.85C2294.15 1708.97 2293.77 1709.07 2293.38 1709.19C2293.12 1709.26 2292.85 1709.34 2292.57 1709.43L2292.24 1709.53C2291.85 1709.63 2291.48 1709.75 2291.09 1709.85C2289.14 1710.43 2287.17 1711 2285.14 1711.58C2283.98 1711.94 2282.8 1712.27 2281.59 1712.62C2280.56 1712.92 2279.54 1713.21 2278.5 1713.52C2277.72 1713.75 2276.94 1713.98 2276.15 1714.19C2273.06 1715.08 2269.9 1715.97 2266.68 1716.89C2266.01 1717.08 2265.36 1717.25 2264.71 1717.44C2263.57 1717.76 2262.46 1718.08 2261.31 1718.4C2260.28 1718.7 2259.24 1718.97 2258.2 1719.28C2257.05 1719.59 2255.88 1719.93 2254.71 1720.24C2215.97 1731 2169 1743.06 2125.44 1751.83C2123.91 1752.13 2122.38 1752.43 2120.86 1752.73C2120.1 1752.88 2119.36 1753.04 2118.59 1753.18C2117.08 1753.47 2115.56 1753.76 2114.06 1754.03C2109.56 1754.9 2105.08 1755.72 2100.68 1756.49C2099.22 1756.75 2097.77 1757.01 2096.31 1757.24C2095.59 1757.37 2094.86 1757.48 2094.14 1757.61C2092.7 1757.84 2091.26 1758.08 2089.83 1758.32C2088.41 1758.55 2086.98 1758.77 2085.57 1758.98C2084.17 1759.2 2082.77 1759.42 2081.37 1759.62C2079.98 1759.82 2078.58 1760.02 2077.23 1760.21C2075.84 1760.41 2074.47 1760.6 2073.13 1760.79C2071.77 1760.96 2070.43 1761.14 2069.08 1761.31C2068.44 1761.4 2067.77 1761.47 2067.09 1761.55C2064.47 1761.87 2061.85 1762.17 2059.31 1762.43C2058.66 1762.51 2058.03 1762.58 2057.39 1762.62C2056.12 1762.75 2054.88 1762.87 2053.64 1763C2051.17 1763.21 2048.75 1763.4 2046.36 1763.56C2044.59 1763.69 2042.84 1763.79 2041.14 1763.86C2040 1763.94 2038.86 1763.98 2037.73 1764.01C2036.07 1764.08 2034.43 1764.12 2032.84 1764.14C2030.7 1764.18 2028.64 1764.17 2026.65 1764.12C2025.64 1764.11 2024.64 1764.07 2023.67 1764.02C2023.2 1764.01 2022.72 1764.01 2022.23 1763.96C2021.29 1763.92 2020.35 1763.86 2019.43 1763.79C2019.11 1763.78 2018.78 1763.75 2018.42 1763.72L2018.17 1763.7C2017.96 1763.68 2017.73 1763.66 2017.5 1763.65C2016.64 1763.59 2015.73 1763.53 2014.77 1763.44C2014.51 1763.43 2014.26 1763.4 2013.99 1763.4C2013.66 1763.37 2013.34 1763.34 2013.01 1763.31C2012.52 1763.29 2011.98 1763.24 2011.46 1763.21C2011.17 1763.18 2010.89 1763.17 2010.61 1763.14C2010.32 1763.13 2010.03 1763.1 2009.76 1763.07C2009.15 1763.03 2008.56 1763 2007.95 1762.94C2007.35 1762.9 2006.74 1762.84 2006.09 1762.81C2005.78 1762.78 2005.46 1762.77 2005.13 1762.74C2004.35 1762.67 2003.52 1762.62 2002.7 1762.55C2002.3 1762.52 2001.91 1762.49 2001.53 1762.45C2000.69 1762.39 1999.86 1762.33 1998.99 1762.26C1998.63 1762.23 1998.27 1762.22 1997.88 1762.19C1996.83 1762.1 1995.76 1762.02 1994.63 1761.94C1991.56 1761.71 1988.27 1761.45 1984.79 1761.21C1984.38 1761.16 1983.94 1761.14 1983.5 1761.09C1982.65 1761.03 1981.77 1760.98 1980.86 1760.9C1979.53 1760.8 1978.18 1760.7 1976.79 1760.6C1976.23 1760.54 1975.68 1760.5 1975.12 1760.46C1973.8 1760.37 1972.48 1760.25 1971.13 1760.17C1970.66 1760.12 1970.17 1760.08 1969.67 1760.05C1968.77 1759.98 1967.83 1759.91 1966.9 1759.84L1963.81 1759.61C1963.27 1759.56 1962.75 1759.52 1962.18 1759.48C1961.68 1759.43 1961.16 1759.4 1960.64 1759.36C1959.83 1759.3 1959.01 1759.23 1958.17 1759.17C1953.39 1758.81 1948.43 1758.42 1943.26 1758.05C1942.49 1757.97 1941.76 1757.92 1940.99 1757.86C1939.84 1757.77 1938.7 1757.67 1937.53 1757.6C1934.83 1757.38 1932.07 1757.18 1929.29 1756.96C1929.07 1756.93 1928.85 1756.92 1928.65 1756.91C1926.21 1756.72 1923.76 1756.53 1921.29 1756.34C1921.16 1756.33 1921.05 1756.31 1920.94 1756.31C1906.15 1755.17 1890.21 1753.93 1873.38 1752.63C1872.53 1752.56 1871.67 1752.49 1870.81 1752.43C1867.42 1752.17 1863.97 1751.9 1860.49 1751.64C1858.31 1751.45 1856.12 1751.28 1853.93 1751.1C1853.81 1751.1 1853.68 1751.09 1853.56 1751.07C1851.05 1750.89 1848.53 1750.68 1845.97 1750.48C1845.67 1750.47 1845.37 1750.44 1845.05 1750.43C1840.59 1750.06 1836.06 1749.7 1831.49 1749.36C1830.33 1749.26 1829.17 1749.17 1827.99 1749.07C1827.63 1749.05 1827.28 1749.02 1826.92 1749C1822.92 1748.68 1818.88 1748.36 1814.85 1748.04C1813.06 1747.9 1811.3 1747.77 1809.53 1747.62C1808.34 1747.52 1807.17 1747.44 1805.97 1747.35C1803.59 1747.15 1801.2 1746.96 1798.79 1746.77C1795.18 1746.48 1791.55 1746.21 1787.93 1745.91C1787.58 1745.89 1787.27 1745.86 1786.95 1745.85C1785.45 1745.7 1783.95 1745.6 1782.46 1745.47L1782.13 1745.46C1777.65 1745.1 1773.18 1744.74 1768.66 1744.39C1768.55 1744.38 1768.42 1744.36 1768.29 1744.35C1767.81 1744.3 1767.35 1744.28 1766.89 1744.25C1764.23 1744.05 1761.56 1743.83 1758.9 1743.61C1756.9 1743.45 1754.88 1743.29 1752.86 1743.12C1751.6 1743.03 1750.36 1742.93 1749.1 1742.83C1743.88 1742.43 1738.62 1742 1733.34 1741.58L1733.21 1741.56C1724.48 1740.85 1715.69 1740.15 1706.84 1739.44C1705.64 1739.34 1704.44 1739.25 1703.23 1739.14L1702.98 1739.12C1699.1 1738.82 1695.23 1738.49 1691.35 1738.18C1690.15 1738.08 1688.97 1738 1687.77 1737.9C1684.44 1737.62 1681.09 1737.35 1677.75 1737.09C1670.97 1736.51 1664.17 1735.96 1657.39 1735.41C1653.1 1735.07 1648.8 1734.71 1644.53 1734.36C1641.83 1734.13 1639.14 1733.9 1636.46 1733.7C1630.03 1733.16 1623.64 1732.64 1617.26 1732.12C1616.96 1732.09 1616.65 1732.06 1616.35 1732.04C1612.35 1731.7 1608.34 1731.37 1604.35 1731.04C1598.67 1730.56 1592.99 1730.09 1587.35 1729.61C1585.1 1729.42 1582.83 1729.24 1580.6 1729.05C1579.9 1728.99 1579.22 1728.92 1578.53 1728.87C1573.97 1728.5 1569.44 1728.11 1564.93 1727.72C1564.26 1727.68 1563.61 1727.62 1562.94 1727.56C1559.84 1727.3 1556.76 1727.04 1553.7 1726.77C1540.68 1725.67 1527.9 1724.57 1515.41 1723.49C1513.89 1723.36 1512.41 1723.23 1510.89 1723.1C1509.98 1723.01 1509.06 1722.94 1508.16 1722.87C1506.94 1722.75 1505.72 1722.65 1504.5 1722.54C1502.07 1722.34 1499.66 1722.13 1497.25 1721.92C1450.7 1717.83 1409.16 1713.99 1377.1 1710.74C1373.83 1710.41 1370.66 1710.1 1367.6 1709.78C1359.98 1708.98 1353 1708.22 1346.74 1707.5C1328.97 1705.49 1316.87 1703.8 1312.07 1702.6C1286.13 1696.05 1242.87 1678.86 1216.34 1660.98C1200.35 1650.19 1190.46 1639.18 1194.13 1630.09C1198.8 1618.52 1208.95 1611.54 1219.37 1606.41C1228.4 1601.94 1237.63 1598.88 1243.68 1595.37C1244.03 1595.17 1244.36 1594.97 1244.7 1594.78C1245.82 1594.07 1246.8 1593.35 1247.63 1592.6C1247.77 1592.45 1247.9 1592.35 1248.06 1592.2C1250.42 1590.04 1254.3 1586.46 1259.9 1582.26C1263.62 1579.46 1268.11 1576.4 1273.42 1573.27L1273.5 1573.23C1296.71 1559.65 1335.51 1545.27 1394.63 1549.54C1394.63 1549.54 1510.33 1558.68 1654.67 1570.5H1654.69C1669.08 1571.67 1683.74 1572.88 1698.61 1574.11H1698.63C1703.56 1574.51 1708.56 1574.92 1713.54 1575.34C1721.04 1575.96 1728.58 1576.59 1736.14 1577.21H1736.16C1748.77 1578.25 1761.46 1579.31 1774.2 1580.37C1776.76 1580.59 1779.31 1580.81 1781.85 1581.01C1786.96 1581.43 1792.06 1581.86 1797.17 1582.28C1807.39 1583.14 1817.61 1584.01 1827.83 1584.86C1832.91 1585.3 1838 1585.73 1843.09 1586.15C1861.26 1587.68 1879.33 1589.21 1897.14 1590.75H1897.23C1948.69 1595.17 1998.04 1599.47 2041.8 1603.44H2041.82C2044.14 1603.64 2046.45 1603.86 2048.72 1604.06C2074.41 1606.4 2098.05 1608.61 2118.91 1610.63C2128.89 1611.61 2138.23 1612.53 2146.83 1613.41C2178.04 1616.59 2199.79 1619.14 2208.29 1620.79C2230.36 1625.06 2255.01 1629.05 2277.52 1632.38C2279.36 1632.65 2281.23 1632.93 2283.03 1633.19L2283.32 1633.23C2286.11 1633.65 2288.85 1634.04 2291.55 1634.43L2291.79 1634.46C2294.91 1634.91 2297.99 1635.34 2300.96 1635.76C2305.3 1636.36 2309.48 1636.93 2313.4 1637.46C2315.13 1637.69 2316.78 1637.92 2318.41 1638.14C2337.85 1640.72 2350.79 1642.25 2350.79 1642.25C2350.79 1642.25 2350.86 1642.61 2350.97 1643.25L2351.02 1643.42C2351.05 1643.6 2351.09 1643.78 2351.13 1644C2351.19 1644.4 2351.29 1644.9 2351.36 1645.44C2351.49 1646.18 2351.62 1647 2351.74 1647.96L2351.75 1647.97C2351.78 1648.2 2351.83 1648.43 2351.85 1648.68C2351.96 1649.46 2352.07 1650.29 2352.17 1651.19C2352.23 1651.81 2352.3 1652.47 2352.37 1653.14C2352.39 1653.5 2352.43 1653.87 2352.46 1654.25C2352.5 1654.67 2352.53 1655.09 2352.55 1655.5C2352.59 1656.11 2352.63 1656.73 2352.68 1657.37C2352.69 1657.61 2352.71 1657.87 2352.71 1658.13C2352.72 1658.56 2352.73 1659.03 2352.75 1659.47C2352.76 1659.72 2352.76 1659.95 2352.76 1660.17C2352.78 1660.63 2352.79 1661.1 2352.79 1661.55C2352.79 1661.78 2352.79 1662.03 2352.81 1662.27Z" fill="#D7E2FF"/>
<path d="M2352.81 1662.27C2352.79 1662.74 2352.79 1663.21 2352.78 1663.69C2352.62 1673.88 2350.56 1685.24 2343.34 1691.78C2343.11 1692.01 2342.85 1692.23 2342.59 1692.44C2342.08 1692.85 2341.53 1693.25 2341 1693.63H2340.99V1693.64C2340.71 1693.81 2340.41 1693.99 2340.12 1694.17C2339.83 1694.33 2339.54 1694.51 2339.24 1694.66H2339.22C2338.91 1694.84 2338.6 1694.98 2338.29 1695.13C2337.97 1695.27 2337.64 1695.43 2337.3 1695.56C2336.99 1695.69 2336.64 1695.82 2336.29 1695.94L2335.98 1696.04L2335.66 1696.15L2335.33 1696.25V1696.27C2335.21 1696.3 2335.08 1696.34 2334.97 1696.38V1696.4C2334.84 1696.43 2334.71 1696.45 2334.58 1696.51C2334.45 1696.56 2334.32 1696.6 2334.2 1696.64H2334.19C2334.04 1696.69 2333.91 1696.73 2333.78 1696.79C2333.64 1696.83 2333.49 1696.87 2333.33 1696.92H2333.32C2333.18 1696.97 2333.05 1697.02 2332.89 1697.06C2332.74 1697.12 2332.58 1697.16 2332.44 1697.22C2332.11 1697.32 2331.78 1697.44 2331.44 1697.54H2331.43C2331.27 1697.6 2331.1 1697.64 2330.94 1697.7H2330.92V1697.71C2330.75 1697.77 2330.56 1697.83 2330.39 1697.87C2330.26 1697.91 2330.14 1697.96 2330 1698C2328.6 1698.45 2327.04 1698.95 2325.34 1699.49C2325.02 1699.59 2324.7 1699.67 2324.37 1699.79C2319.88 1701.2 2314.44 1702.88 2308.19 1704.77C2307.54 1704.96 2306.91 1705.16 2306.23 1705.36C2305.14 1705.69 2304.02 1706.02 2302.88 1706.37C2302.63 1706.43 2302.39 1706.52 2302.13 1706.59C2301.8 1706.69 2301.43 1706.79 2301.09 1706.91C2300.74 1707.01 2300.38 1707.11 2300.02 1707.21C2299.66 1707.32 2299.3 1707.42 2298.94 1707.54C2298.59 1707.64 2298.22 1707.76 2297.86 1707.86C2297.48 1707.97 2297.13 1708.07 2296.77 1708.19C2296.38 1708.29 2296.01 1708.41 2295.65 1708.52C2295.27 1708.62 2294.88 1708.74 2294.52 1708.84V1708.85C2294.15 1708.97 2293.77 1709.07 2293.38 1709.19C2293.12 1709.26 2292.85 1709.34 2292.57 1709.43L2292.24 1709.53C2291.85 1709.63 2291.48 1709.75 2291.09 1709.85C2289.14 1710.43 2287.17 1711 2285.14 1711.58C2283.98 1711.94 2282.8 1712.27 2281.59 1712.62C2280.56 1712.92 2279.54 1713.21 2278.5 1713.52C2277.72 1713.75 2276.94 1713.98 2276.15 1714.19C2273.06 1715.08 2269.9 1715.97 2266.68 1716.89C2266.01 1717.08 2265.36 1717.25 2264.71 1717.44C2263.57 1717.76 2262.46 1718.08 2261.31 1718.4C2260.28 1718.7 2259.24 1718.97 2258.2 1719.28C2257.05 1719.59 2255.88 1719.93 2254.71 1720.24C2215.97 1731 2169 1743.06 2125.44 1751.83C2123.91 1752.13 2122.38 1752.43 2120.86 1752.73C2120.1 1752.88 2119.36 1753.04 2118.59 1753.18C2117.08 1753.47 2115.56 1753.76 2114.06 1754.03C2109.56 1754.9 2105.08 1755.72 2100.68 1756.49C2099.22 1756.75 2097.77 1757.01 2096.31 1757.24C2095.59 1757.37 2094.86 1757.48 2094.14 1757.61C2092.7 1757.84 2091.26 1758.08 2089.83 1758.32C2088.41 1758.55 2086.98 1758.77 2085.57 1758.98C2084.17 1759.2 2082.77 1759.42 2081.37 1759.62C2079.98 1759.82 2078.58 1760.02 2077.23 1760.21C2075.84 1760.41 2074.47 1760.6 2073.13 1760.79C2071.77 1760.96 2070.43 1761.14 2069.08 1761.31C2068.43 1761.4 2067.77 1761.47 2067.09 1761.55C2064.47 1761.87 2061.85 1762.17 2059.31 1762.43C2058.66 1762.51 2058.03 1762.58 2057.39 1762.62C2056.12 1762.75 2054.88 1762.87 2053.64 1763C2051.17 1763.21 2048.75 1763.4 2046.36 1763.56C2044.59 1763.69 2042.84 1763.79 2041.14 1763.86C2040 1763.94 2038.86 1763.98 2037.73 1764.01C2036.07 1764.08 2034.43 1764.12 2032.84 1764.14C2030.7 1764.18 2028.64 1764.17 2026.65 1764.12C2025.64 1764.11 2024.64 1764.07 2023.67 1764.02C2023.2 1764.01 2022.72 1764.01 2022.23 1763.96C2021.29 1763.92 2020.35 1763.86 2019.43 1763.79C2019.11 1763.78 2018.78 1763.75 2018.42 1763.72L2018.17 1763.7C2017.96 1763.68 2017.73 1763.66 2017.5 1763.65C2016.64 1763.59 2015.73 1763.53 2014.77 1763.44C2014.51 1763.43 2014.26 1763.4 2013.99 1763.4C2013.66 1763.37 2013.34 1763.34 2013.01 1763.31C2012.52 1763.29 2011.98 1763.24 2011.46 1763.21C2011.17 1763.18 2010.88 1763.17 2010.61 1763.14C2010.32 1763.13 2010.03 1763.1 2009.76 1763.07C2009.15 1763.03 2008.56 1763 2007.95 1762.94C2007.35 1762.9 2006.74 1762.84 2006.09 1762.81C2005.78 1762.78 2005.46 1762.77 2005.13 1762.74C2004.35 1762.67 2003.52 1762.62 2002.7 1762.55C2002.3 1762.52 2001.91 1762.49 2001.53 1762.45C2000.69 1762.39 1999.86 1762.33 1998.99 1762.26C1998.63 1762.23 1998.27 1762.22 1997.88 1762.19C1996.83 1762.1 1995.76 1762.02 1994.63 1761.94C1991.56 1761.71 1988.27 1761.45 1984.79 1761.21C1984.38 1761.16 1983.94 1761.14 1983.5 1761.09C1982.65 1761.03 1981.77 1760.98 1980.86 1760.9C1979.53 1760.8 1978.18 1760.7 1976.79 1760.6C1976.23 1760.54 1975.68 1760.5 1975.12 1760.46C1973.8 1760.37 1972.47 1760.25 1971.13 1760.17C1970.66 1760.12 1970.17 1760.08 1969.67 1760.05C1968.77 1759.98 1967.83 1759.91 1966.9 1759.84L1963.81 1759.61C1963.27 1759.56 1962.75 1759.52 1962.18 1759.48C1961.68 1759.43 1961.16 1759.4 1960.64 1759.36C1959.83 1759.3 1959.01 1759.23 1958.17 1759.17C1953.39 1758.81 1948.43 1758.42 1943.26 1758.05C1942.49 1757.97 1941.76 1757.92 1940.99 1757.86C1939.84 1757.77 1938.7 1757.67 1937.53 1757.6C1934.83 1757.38 1932.07 1757.18 1929.29 1756.96C1929.07 1756.93 1928.85 1756.92 1928.65 1756.91C1926.21 1756.72 1923.76 1756.53 1921.29 1756.34C1921.16 1756.33 1921.05 1756.31 1920.94 1756.31C1906.15 1755.17 1890.21 1753.93 1873.38 1752.63C1872.53 1752.56 1871.67 1752.49 1870.81 1752.43C1867.42 1752.17 1863.97 1751.9 1860.49 1751.64C1858.31 1751.45 1856.12 1751.28 1853.93 1751.1C1853.81 1751.1 1853.68 1751.09 1853.56 1751.07C1851.05 1750.89 1848.53 1750.68 1845.97 1750.48C1845.67 1750.47 1845.37 1750.44 1845.05 1750.43C1840.59 1750.06 1836.06 1749.7 1831.49 1749.36C1830.33 1749.26 1829.17 1749.17 1827.99 1749.07C1827.63 1749.05 1827.28 1749.02 1826.92 1749C1822.92 1748.68 1818.88 1748.36 1814.85 1748.04C1813.06 1747.9 1811.3 1747.77 1809.53 1747.62C1808.34 1747.52 1807.17 1747.44 1805.97 1747.35C1803.59 1747.15 1801.2 1746.96 1798.79 1746.77C1795.18 1746.48 1791.55 1746.21 1787.93 1745.91C1787.58 1745.89 1787.27 1745.86 1786.95 1745.85C1785.45 1745.7 1783.95 1745.6 1782.46 1745.47L1782.13 1745.46C1777.65 1745.1 1773.18 1744.74 1768.66 1744.39C1768.55 1744.38 1768.42 1744.36 1768.29 1744.35C1767.81 1744.3 1767.35 1744.28 1766.89 1744.25C1868.2 1687.75 1897.14 1590.75 1897.14 1590.75H1897.23C1948.69 1595.17 1998.04 1599.47 2041.8 1603.44H2041.82C2044.14 1603.64 2046.45 1603.86 2048.72 1604.06C2074.41 1606.4 2098.05 1608.61 2118.91 1610.63C2128.89 1611.61 2138.23 1612.53 2146.83 1613.41C2178.04 1616.59 2199.79 1619.14 2208.29 1620.79C2230.36 1625.06 2255.01 1629.05 2277.52 1632.38C2279.36 1632.65 2281.23 1632.93 2283.03 1633.19L2283.32 1633.23C2286.11 1633.65 2288.85 1634.04 2291.55 1634.43L2291.79 1634.46C2294.91 1634.91 2297.99 1635.34 2300.96 1635.76C2305.3 1636.36 2309.47 1636.93 2313.4 1637.46C2315.13 1637.69 2316.78 1637.92 2318.41 1638.14C2337.85 1640.72 2350.79 1642.25 2350.79 1642.25C2350.79 1642.25 2350.86 1642.61 2350.97 1643.25L2351.02 1643.42C2351.05 1643.6 2351.09 1643.78 2351.13 1644C2351.19 1644.4 2351.29 1644.9 2351.36 1645.44C2351.49 1646.18 2351.62 1647 2351.74 1647.96L2351.75 1647.97C2351.78 1648.2 2351.83 1648.43 2351.85 1648.68C2351.96 1649.46 2352.07 1650.29 2352.17 1651.19C2352.23 1651.81 2352.3 1652.47 2352.37 1653.14C2352.39 1653.5 2352.43 1653.87 2352.46 1654.25C2352.5 1654.67 2352.53 1655.09 2352.55 1655.5C2352.59 1656.11 2352.63 1656.73 2352.68 1657.37C2352.69 1657.61 2352.71 1657.87 2352.71 1658.13C2352.72 1658.56 2352.73 1659.03 2352.75 1659.47C2352.76 1659.72 2352.76 1659.95 2352.76 1660.17C2352.78 1660.63 2352.79 1661.1 2352.79 1661.55C2352.79 1661.78 2352.79 1662.03 2352.81 1662.27Z" fill="#F99746"/>
<path d="M2285.13 1711.6C2287.36 1710.95 2289.52 1710.32 2291.63 1709.7C2291.66 1709.7 2291.69 1709.68 2291.71 1709.67C2289.58 1710.3 2287.38 1710.95 2285.13 1711.6Z" fill="#D2A393"/>
<path d="M2285.13 1711.6C2285.13 1711.6 2285.13 1711.6 2285.13 1711.58C2287.16 1711.01 2289.14 1710.43 2291.08 1709.85C2291.25 1709.81 2291.44 1709.76 2291.63 1709.7C2289.5 1710.32 2287.35 1710.95 2285.13 1711.6Z" fill="#E37E2F"/>
<path d="M2292.86 1709.34C2292.88 1709.33 2292.9 1709.33 2292.93 1709.32C2293.22 1709.23 2293.52 1709.15 2293.83 1709.06C2293.85 1709.05 2293.91 1709.03 2293.95 1709.02C2293.59 1709.12 2293.22 1709.23 2292.86 1709.34Z" fill="#D2A393"/>
<path d="M2292.92 1709.32C2293.08 1709.28 2293.23 1709.22 2293.39 1709.18C2293.53 1709.14 2293.68 1709.09 2293.82 1709.05C2293.51 1709.14 2293.22 1709.23 2292.92 1709.32Z" fill="#E37E2F"/>
<path d="M2294.54 1708.84C2294.76 1708.77 2295 1708.7 2295.23 1708.64C2295.28 1708.62 2295.35 1708.6 2295.41 1708.59C2295.11 1708.67 2294.82 1708.76 2294.54 1708.84Z" fill="#D2A393"/>
<path d="M2296.01 1708.41C2296.06 1708.4 2296.1 1708.38 2296.14 1708.37C2296.83 1708.16 2297.52 1707.96 2298.22 1707.76C2298.43 1707.69 2298.65 1707.62 2298.87 1707.56C2299.36 1707.41 2299.87 1707.27 2300.36 1707.11C2300.4 1707.1 2300.46 1707.08 2300.52 1707.07C2299.05 1707.51 2297.54 1707.96 2296.01 1708.41Z" fill="#D2A393"/>
<path d="M2296.12 1708.37C2296.35 1708.32 2296.55 1708.25 2296.76 1708.19C2297.11 1708.08 2297.48 1707.98 2297.84 1707.86C2297.96 1707.84 2298.07 1707.79 2298.2 1707.77C2297.52 1707.96 2296.83 1708.18 2296.12 1708.37ZM2298.85 1707.57C2298.88 1707.57 2298.9 1707.55 2298.93 1707.54C2299.28 1707.44 2299.65 1707.33 2300 1707.23C2300.12 1707.19 2300.23 1707.16 2300.34 1707.13C2299.85 1707.27 2299.34 1707.43 2298.85 1707.57Z" fill="#E37E2F"/>
<path d="M2301.39 1706.82C2301.52 1706.78 2301.63 1706.73 2301.76 1706.71C2301.97 1706.64 2302.18 1706.58 2302.39 1706.51C2302.43 1706.51 2302.48 1706.49 2302.5 1706.48C2302.58 1706.45 2302.65 1706.44 2302.73 1706.41C2302.77 1706.39 2302.82 1706.38 2302.86 1706.37C2302.89 1706.37 2302.9 1706.37 2302.93 1706.35C2302.42 1706.51 2301.91 1706.66 2301.39 1706.82Z" fill="#D2A393"/>
<path d="M2301.76 1706.7C2301.9 1706.67 2302.01 1706.63 2302.13 1706.58C2302.21 1706.57 2302.31 1706.54 2302.39 1706.51C2302.18 1706.57 2301.97 1706.64 2301.76 1706.7Z" fill="#E37E2F"/>
<path d="M2305.64 1705.54C2305.78 1705.5 2305.92 1705.46 2306.06 1705.42C2307.18 1705.07 2308.28 1704.75 2309.34 1704.42C2310.77 1703.98 2312.16 1703.57 2313.51 1703.16C2311.04 1703.91 2308.4 1704.71 2305.64 1705.54Z" fill="#D2A393"/>
<path d="M2306.05 1705.42C2306.11 1705.4 2306.17 1705.39 2306.21 1705.36C2306.89 1705.16 2307.53 1704.96 2308.18 1704.78C2308.56 1704.65 2308.96 1704.54 2309.34 1704.43C2308.28 1704.75 2307.19 1705.08 2306.05 1705.42Z" fill="#E37E2F"/>
<path d="M2316 1702.4C2317.74 1701.86 2319.38 1701.34 2320.93 1700.86C2322.42 1700.4 2323.82 1699.96 2325.13 1699.56C2325.17 1699.54 2325.23 1699.52 2325.27 1699.5C2322.55 1700.37 2319.45 1701.33 2316 1702.4Z" fill="#D2A393"/>
<path d="M2320.92 1700.87C2322.14 1700.49 2323.26 1700.13 2324.36 1699.79C2324.62 1699.7 2324.88 1699.63 2325.12 1699.56C2323.81 1699.97 2322.41 1700.4 2320.92 1700.87Z" fill="#E37E2F"/>
<path d="M2327.71 1698.74C2327.99 1698.64 2328.28 1698.56 2328.57 1698.47C2329.27 1698.24 2329.94 1698.03 2330.55 1697.83C2330.58 1697.81 2330.61 1697.81 2330.64 1697.8C2329.74 1698.1 2328.77 1698.4 2327.71 1698.74Z" fill="#D2A393"/>
<path d="M2328.55 1698.47C2329.07 1698.32 2329.52 1698.16 2329.99 1698C2330.12 1697.96 2330.25 1697.93 2330.38 1697.89C2330.45 1697.86 2330.49 1697.84 2330.55 1697.83C2329.92 1698.03 2329.27 1698.24 2328.55 1698.47Z" fill="#E37E2F"/>
<path d="M2330.93 1697.71C2331.13 1697.64 2331.33 1697.58 2331.53 1697.51C2331.61 1697.48 2331.71 1697.46 2331.8 1697.43C2332.01 1697.36 2332.2 1697.3 2332.4 1697.23C2331.93 1697.38 2331.44 1697.54 2330.93 1697.71Z" fill="#D2A393"/>
<path d="M2330.92 1697.71H2330.93C2331.09 1697.65 2331.26 1697.59 2331.44 1697.54H2331.45C2331.46 1697.54 2331.49 1697.52 2331.52 1697.52C2331.32 1697.58 2331.12 1697.64 2330.92 1697.71ZM2331.81 1697.42C2332.01 1697.35 2332.21 1697.29 2332.43 1697.22C2332.57 1697.16 2332.74 1697.12 2332.89 1697.06C2333.05 1697.02 2333.18 1696.98 2333.32 1696.92H2333.33C2333.35 1696.92 2333.35 1696.92 2333.35 1696.92C2333.05 1697.02 2332.74 1697.12 2332.4 1697.23C2332.2 1697.29 2332.01 1697.35 2331.81 1697.42ZM2334.18 1696.64H2334.2C2334.25 1696.62 2334.33 1696.6 2334.4 1696.57C2334.33 1696.6 2334.24 1696.62 2334.18 1696.64ZM2334.66 1696.49C2334.71 1696.46 2334.76 1696.44 2334.83 1696.43C2334.76 1696.44 2334.71 1696.47 2334.66 1696.49ZM2335.32 1696.26L2335.45 1696.23C2335.4 1696.23 2335.36 1696.24 2335.32 1696.26ZM2335.98 1696.04V1696.03L2336.17 1695.97C2336.11 1696 2336.05 1696.01 2335.98 1696.04ZM2337.75 1695.37C2337.92 1695.29 2338.11 1695.21 2338.28 1695.14C2338.61 1694.98 2338.91 1694.83 2339.21 1694.68C2338.74 1694.92 2338.25 1695.15 2337.75 1695.37ZM2340.19 1694.13C2340.34 1694.03 2340.48 1693.94 2340.64 1693.86C2340.48 1693.94 2340.34 1694.04 2340.19 1694.13ZM2340.98 1693.63H2341C2340.98 1693.63 2340.98 1693.63 2340.98 1693.63ZM2343.34 1691.79C2343.4 1691.73 2343.44 1691.68 2343.48 1691.64C2343.44 1691.68 2343.4 1691.74 2343.34 1691.79Z" fill="#E37E2F"/>
<path d="M2351.25 1677.04C2351.42 1676.3 2351.58 1675.55 2351.72 1674.8V1674.79C2351.72 1674.76 2351.74 1674.75 2351.74 1674.72C2352.5 1670.7 2352.78 1666.53 2352.81 1662.58C2352.81 1662.56 2352.81 1662.53 2352.81 1662.52C2352.79 1667.27 2352.37 1672.31 2351.25 1677.04Z" fill="#D2A393"/>
<path d="M2351.74 1674.72C2352.42 1671.08 2352.72 1667.31 2352.78 1663.69C2352.79 1663.31 2352.79 1662.94 2352.81 1662.58C2352.78 1666.53 2352.5 1670.7 2351.74 1674.72Z" fill="#E37E2F"/>
<path d="M2352.81 1662.14V1662.13C2352.79 1660.69 2352.76 1659.27 2352.71 1657.92C2352.71 1657.89 2352.71 1657.86 2352.71 1657.84C2352.76 1659.23 2352.81 1660.67 2352.81 1662.14Z" fill="#D2A393"/>
<path d="M2352.81 1662.13C2352.79 1661.94 2352.79 1661.77 2352.79 1661.6C2352.79 1661.58 2352.79 1661.57 2352.79 1661.55C2352.79 1661.1 2352.78 1660.63 2352.76 1660.17C2352.76 1659.95 2352.76 1659.72 2352.75 1659.47C2352.73 1659.03 2352.72 1658.56 2352.71 1658.13C2352.71 1658.06 2352.71 1657.99 2352.71 1657.91C2352.76 1659.27 2352.79 1660.69 2352.81 1662.13Z" fill="#E37E2F"/>
<path d="M2352.68 1657.28C2352.66 1657.24 2352.66 1657.2 2352.66 1657.14C2352.62 1656.42 2352.59 1655.72 2352.53 1655.03C2352.52 1654.83 2352.49 1654.61 2352.47 1654.41C2352.45 1654.03 2352.42 1653.66 2352.39 1653.28C2352.37 1653.24 2352.37 1653.2 2352.37 1653.15C2352.49 1654.45 2352.59 1655.84 2352.68 1657.28Z" fill="#D2A393"/>
<path d="M2352.66 1657.15C2352.61 1656.59 2352.58 1656.04 2352.55 1655.51C2352.54 1655.35 2352.53 1655.2 2352.53 1655.04C2352.57 1655.72 2352.61 1656.43 2352.66 1657.15ZM2352.47 1654.41C2352.47 1654.37 2352.45 1654.31 2352.45 1654.25C2352.42 1653.93 2352.4 1653.6 2352.38 1653.3C2352.4 1653.66 2352.44 1654.03 2352.47 1654.41Z" fill="#E37E2F"/>
<path d="M2352.35 1653.1C2352.34 1653 2352.32 1652.9 2352.31 1652.81C2352.26 1652.22 2352.19 1651.64 2352.13 1651.1C2352.08 1650.43 2351.99 1649.81 2351.9 1649.22C2351.89 1649.05 2351.86 1648.87 2351.85 1648.7V1648.69C2352.02 1650.01 2352.19 1651.5 2352.35 1653.1Z" fill="#D2A393"/>
<path d="M2352.33 1652.8C2352.27 1652.25 2352.23 1651.7 2352.17 1651.2C2352.16 1651.15 2352.16 1651.12 2352.16 1651.08C2352.21 1651.63 2352.27 1652.21 2352.33 1652.8ZM2351.92 1649.22C2351.9 1649.03 2351.88 1648.86 2351.85 1648.69H2351.87C2351.88 1648.86 2351.9 1649.03 2351.92 1649.22Z" fill="#E37E2F"/>
<path d="M2285.14 1711.58C2276.48 1675.35 2248.58 1660.22 2248.58 1660.22L2351.85 1648.68C2351.96 1649.46 2352.07 1650.29 2352.17 1651.19C2352.23 1651.79 2352.3 1652.44 2352.37 1653.09C2352.37 1653.11 2352.37 1653.14 2352.37 1653.15C2352.39 1653.51 2352.43 1653.87 2352.46 1654.25C2352.5 1654.67 2352.53 1655.09 2352.55 1655.5C2352.59 1656.08 2352.63 1656.69 2352.68 1657.29C2352.68 1657.47 2352.69 1657.66 2352.71 1657.84C2352.71 1657.93 2352.71 1658.03 2352.71 1658.13C2352.72 1658.56 2352.73 1659.03 2352.75 1659.47C2352.76 1659.72 2352.76 1659.95 2352.76 1660.17C2352.78 1660.63 2352.79 1661.1 2352.79 1661.55C2352.79 1661.57 2352.79 1661.58 2352.79 1661.6C2352.79 1661.78 2352.79 1661.96 2352.81 1662.14C2352.81 1662.27 2352.81 1662.4 2352.81 1662.52C2352.81 1662.53 2352.81 1662.56 2352.81 1662.58C2352.79 1662.94 2352.79 1663.31 2352.78 1663.69C2352.72 1667.31 2352.42 1671.08 2351.74 1674.72C2351.74 1674.75 2351.72 1674.76 2351.72 1674.79V1674.8C2351.58 1675.55 2351.42 1676.3 2351.25 1677.04C2349.89 1682.71 2347.5 1687.92 2343.48 1691.65C2343.45 1691.69 2343.4 1691.73 2343.34 1691.78C2342.6 1692.44 2341.84 1693.06 2341 1693.63H2340.99C2340.86 1693.7 2340.75 1693.77 2340.64 1693.86C2340.49 1693.94 2340.34 1694.03 2340.19 1694.12C2339.87 1694.32 2339.56 1694.49 2339.22 1694.66C2338.91 1694.84 2338.6 1694.98 2338.29 1695.13C2338.11 1695.21 2337.93 1695.29 2337.75 1695.37C2337.28 1695.57 2336.8 1695.76 2336.29 1695.94C2336.25 1695.95 2336.21 1695.96 2336.16 1695.98L2335.98 1696.04C2335.8 1696.09 2335.63 1696.15 2335.44 1696.22L2335.33 1696.25V1696.27C2335.27 1696.28 2335.23 1696.3 2335.17 1696.31C2335.1 1696.34 2335.04 1696.35 2334.97 1696.38C2334.91 1696.4 2334.88 1696.41 2334.84 1696.43C2334.76 1696.44 2334.72 1696.45 2334.66 1696.48C2334.56 1696.51 2334.49 1696.54 2334.39 1696.57C2334.33 1696.6 2334.26 1696.61 2334.2 1696.64H2334.19C2333.91 1696.73 2333.65 1696.82 2333.35 1696.92C2333.35 1696.92 2333.35 1696.92 2333.33 1696.92H2333.32C2333.18 1696.97 2333.05 1697.02 2332.89 1697.06C2332.74 1697.12 2332.58 1697.16 2332.44 1697.22C2332.22 1697.28 2332.02 1697.35 2331.8 1697.42C2331.72 1697.45 2331.62 1697.48 2331.53 1697.51C2331.5 1697.52 2331.47 1697.52 2331.44 1697.54H2331.43C2331.27 1697.6 2331.1 1697.64 2330.94 1697.7H2330.92V1697.71C2330.84 1697.74 2330.74 1697.77 2330.65 1697.8C2330.62 1697.81 2330.59 1697.81 2330.56 1697.83C2330.52 1697.84 2330.46 1697.85 2330.39 1697.87C2330.26 1697.91 2330.14 1697.96 2330 1698C2329.54 1698.14 2329.08 1698.3 2328.57 1698.46C2328.28 1698.55 2328.01 1698.63 2327.72 1698.74C2326.94 1698.98 2326.13 1699.24 2325.28 1699.5C2325.24 1699.51 2325.18 1699.53 2325.12 1699.54C2324.89 1699.63 2324.63 1699.7 2324.37 1699.79C2323.27 1700.12 2322.13 1700.48 2320.94 1700.86C2319.38 1701.35 2317.75 1701.85 2316.01 1702.39C2315.19 1702.63 2314.37 1702.89 2313.53 1703.15C2312.17 1703.56 2310.79 1703.98 2309.36 1704.41C2308.97 1704.52 2308.58 1704.64 2308.19 1704.77C2307.54 1704.96 2306.91 1705.16 2306.23 1705.36C2306.18 1705.38 2306.13 1705.39 2306.07 1705.4C2305.94 1705.45 2305.79 1705.49 2305.65 1705.53C2304.77 1705.79 2303.86 1706.07 2302.94 1706.34C2302.91 1706.36 2302.91 1706.36 2302.88 1706.37C2302.83 1706.39 2302.78 1706.39 2302.73 1706.4C2302.66 1706.43 2302.59 1706.44 2302.52 1706.47C2302.49 1706.49 2302.45 1706.49 2302.4 1706.5C2302.32 1706.53 2302.21 1706.56 2302.13 1706.59C2302.03 1706.62 2301.9 1706.66 2301.77 1706.69C2301.65 1706.73 2301.52 1706.78 2301.41 1706.8C2301.12 1706.89 2300.8 1706.98 2300.51 1707.08C2300.45 1707.09 2300.41 1707.11 2300.35 1707.12C2300.25 1707.15 2300.12 1707.18 2300.02 1707.21C2299.66 1707.32 2299.3 1707.42 2298.94 1707.54C2298.91 1707.54 2298.88 1707.55 2298.87 1707.57C2298.65 1707.63 2298.42 1707.7 2298.2 1707.76C2298.09 1707.79 2297.97 1707.83 2297.86 1707.86C2297.48 1707.97 2297.13 1708.07 2296.77 1708.19C2296.56 1708.25 2296.35 1708.31 2296.14 1708.36C2296.09 1708.38 2296.05 1708.39 2296.01 1708.41C2295.81 1708.46 2295.6 1708.52 2295.4 1708.59C2295.36 1708.61 2295.29 1708.62 2295.21 1708.64C2295 1708.71 2294.75 1708.78 2294.52 1708.84V1708.85C2294.33 1708.91 2294.15 1708.95 2293.96 1709.01C2293.91 1709.03 2293.86 1709.04 2293.81 1709.06C2293.67 1709.1 2293.52 1709.14 2293.38 1709.19C2293.24 1709.23 2293.08 1709.27 2292.93 1709.32C2292.9 1709.33 2292.89 1709.33 2292.86 1709.34C2292.47 1709.45 2292.1 1709.56 2291.72 1709.68C2291.69 1709.69 2291.66 1709.69 2291.63 1709.71C2291.45 1709.75 2291.26 1709.81 2291.09 1709.85C2289.14 1710.43 2287.17 1711 2285.14 1711.58Z" fill="#ED8736"/>
<path d="M1784.07 1648.11C1780.69 1647.81 1778.21 1644.49 1778.56 1640.71L1779.21 1633.43C1779.56 1629.65 1782.6 1626.8 1785.97 1627.09C1789.35 1627.39 1791.83 1630.71 1791.48 1634.49L1790.83 1641.77C1790.48 1645.55 1787.44 1648.4 1784.07 1648.11Z" fill="#2B478B"/>
<path d="M1752.44 1645.37C1749.07 1645.09 1746.59 1641.76 1746.92 1637.97L1747.59 1630.71C1747.92 1626.92 1750.96 1624.07 1754.33 1624.36C1757.71 1624.65 1760.19 1627.97 1759.85 1631.76L1759.19 1639.04C1758.84 1642.81 1755.8 1645.67 1752.44 1645.37Z" fill="#2B478B"/>
<path d="M1720.8 1642.64C1717.43 1642.36 1714.95 1639.03 1715.29 1635.24L1715.95 1627.97C1716.29 1624.19 1719.33 1621.33 1722.71 1621.63C1726.08 1621.92 1728.56 1625.25 1728.21 1629.03L1727.56 1636.31C1727.21 1640.08 1724.17 1642.93 1720.8 1642.64Z" fill="#2B478B"/>
<path d="M1689.16 1639.92C1685.79 1639.63 1683.32 1636.29 1683.65 1632.52L1684.32 1625.24C1684.65 1621.45 1687.69 1618.6 1691.07 1618.89C1694.44 1619.19 1696.92 1622.52 1696.57 1626.29L1695.92 1633.57C1695.57 1637.35 1692.53 1640.21 1689.16 1639.92Z" fill="#2B478B"/>
<path d="M1657.53 1637.19C1654.16 1636.89 1651.68 1633.56 1652.03 1629.79L1652.68 1622.51C1653.03 1618.72 1656.07 1615.87 1659.44 1616.16C1662.81 1616.45 1665.29 1619.79 1664.95 1623.56L1664.29 1630.84C1663.95 1634.63 1660.91 1637.48 1657.53 1637.19Z" fill="#2B478B"/>
<path d="M1625.89 1634.45C1622.52 1634.16 1620.04 1630.83 1620.39 1627.05L1621.05 1619.77C1621.39 1616 1624.43 1613.15 1627.8 1613.43C1631.17 1613.72 1633.65 1617.05 1633.31 1620.83L1632.65 1628.11C1632.31 1631.89 1629.27 1634.75 1625.89 1634.45Z" fill="#2B478B"/>
<path d="M1594.27 1631.72C1590.89 1631.43 1588.41 1628.09 1588.76 1624.32L1589.41 1617.04C1589.76 1613.27 1592.8 1610.41 1596.17 1610.69C1599.55 1610.99 1602.03 1614.32 1601.68 1618.11L1601.01 1625.37C1600.68 1629.16 1597.64 1632.01 1594.27 1631.72Z" fill="#2B478B"/>
<path d="M1562.63 1628.99C1559.25 1628.69 1556.77 1625.36 1557.12 1621.59L1557.77 1614.31C1558.12 1610.53 1561.16 1607.68 1564.53 1607.97C1567.91 1608.25 1570.39 1611.59 1570.04 1615.37L1569.39 1622.64C1569.04 1626.43 1566 1629.28 1562.63 1628.99Z" fill="#2B478B"/>
<path d="M1531 1626.25C1527.63 1625.96 1525.15 1622.64 1525.49 1618.85L1526.15 1611.57C1526.49 1607.8 1529.53 1604.95 1532.91 1605.24C1536.28 1605.53 1538.75 1608.85 1538.41 1612.64L1537.75 1619.92C1537.41 1623.69 1534.37 1626.55 1531 1626.25Z" fill="#2B478B"/>
<path d="M1500 1623.57C1496.63 1623.29 1494.15 1619.96 1494.48 1616.17L1495.15 1608.91C1495.48 1605.12 1498.52 1602.27 1501.89 1602.56C1505.27 1602.85 1507.75 1606.19 1507.41 1609.96L1506.75 1617.24C1506.41 1621.01 1503.37 1623.87 1500 1623.57Z" fill="#2B478B"/>
<path d="M1468.36 1620.85C1464.99 1620.56 1462.51 1617.23 1462.85 1613.44L1463.51 1606.17C1463.85 1602.39 1466.89 1599.53 1470.27 1599.83C1473.64 1600.12 1476.12 1603.45 1475.77 1607.23L1475.12 1614.51C1474.77 1618.28 1471.73 1621.13 1468.36 1620.85Z" fill="#2B478B"/>
<path d="M1436.72 1618.12C1433.36 1617.83 1430.88 1614.49 1431.21 1610.72L1431.88 1603.44C1432.21 1599.65 1435.25 1596.8 1438.63 1597.09C1442 1597.39 1444.48 1600.72 1444.15 1604.49L1443.48 1611.77C1443.13 1615.55 1440.09 1618.41 1436.72 1618.12Z" fill="#2B478B"/>
<path d="M1397.53 1614.36C1394.16 1614.08 1391.68 1610.75 1392.03 1606.96L1392.69 1599.68C1393.03 1595.91 1396.07 1593.05 1399.44 1593.35C1402.81 1593.64 1405.29 1596.96 1404.95 1600.75L1404.29 1608.03C1403.95 1611.8 1400.91 1614.65 1397.53 1614.36Z" fill="#2B478B"/>
<path d="M2129.21 1681.6C2125.84 1681.31 2123.37 1677.99 2123.71 1674.2L2124.37 1666.92C2124.71 1663.15 2127.75 1660.29 2131.12 1660.59C2134.49 1660.88 2136.97 1664.2 2136.63 1667.99L2135.97 1675.27C2135.63 1679.04 2132.59 1681.89 2129.21 1681.6Z" fill="#2B478B"/>
<path d="M2097.59 1678.87C2094.21 1678.59 2091.73 1675.25 2092.08 1671.47L2092.73 1664.2C2093.08 1660.41 2096.12 1657.56 2099.49 1657.85C2102.87 1658.15 2105.35 1661.48 2105 1665.25L2104.33 1672.53C2104 1676.31 2100.96 1679.16 2097.59 1678.87Z" fill="#2B478B"/>
<path d="M2065.95 1676.15C2062.57 1675.85 2060.09 1672.52 2060.44 1668.73L2061.11 1661.47C2061.44 1657.68 2064.48 1654.83 2067.85 1655.12C2071.23 1655.41 2073.71 1658.75 2073.36 1662.52L2072.71 1669.8C2072.36 1673.57 2069.32 1676.43 2065.95 1676.15Z" fill="#2B478B"/>
<path d="M1279.13 1573.59L1257.56 1593.95L1244.69 1594.77C1245.82 1594.07 1246.8 1593.35 1247.63 1592.6C1247.77 1592.47 1247.9 1592.35 1248.06 1592.19C1250.42 1590.04 1254.3 1586.47 1259.89 1582.28C1263.62 1579.47 1268.11 1576.4 1273.42 1573.28L1273.5 1573.23L1279.13 1573.59Z" fill="#2B478B"/>
<path d="M1283.83 1574.33L1262.77 1594.88L1286.68 1599.95L1294.23 1576.51L1283.83 1574.33Z" fill="#2B478B"/>
<path d="M1296.48 1577.23L1290.92 1599.25L1308.64 1594.21L1309.78 1578.87L1296.48 1577.23Z" fill="#2B478B"/>
<path d="M1727.89 1746.04C1737.19 1742.41 1739.63 1726.24 1731.93 1719.31C1724.25 1712.37 1713.73 1705.4 1701.89 1704.55C1677.57 1702.79 1687.45 1752.31 1695.52 1753.33C1700.27 1753.93 1715.53 1750.88 1727.89 1746.04Z" fill="#2B478B"/>
<path d="M2246.48 1650.4C2247.45 1649.08 2338 1619.24 2397.17 1632.23L2340.19 1668.11L2248.57 1660.23C2248.57 1660.23 2241.6 1656.99 2246.48 1650.4Z" fill="#355DAF"/>
<path d="M2202.78 1441.47C2202.78 1441.47 2142.19 1575.39 2130.64 1595.72C2119.12 1616.05 2093.9 1629.03 2093.9 1629.03L2093.74 1629.08L1933.18 1694.31C1933.18 1694.31 1732.89 1678.52 1689.32 1673.72L1689.3 1673.7C1685.36 1673.27 1682.67 1672.92 1681.57 1672.69C1668.33 1669.87 1662.14 1663.72 1664.68 1658.89C1667.24 1654.06 1975.15 1617.13 2009.25 1613.34C2009.57 1613.3 2009.9 1613.26 2010.22 1613.23C2043.41 1609.31 2046.49 1598.03 2046.49 1598.03L2173.52 1452.41C2175.16 1449.72 2177.82 1447.7 2180.9 1446.17C2190.04 1441.63 2202.78 1441.47 2202.78 1441.47Z" fill="#D7E2FF"/>
<path d="M2180.9 1446.17C2146.71 1487.68 2052.13 1602.1 2043.17 1609.9C2033.51 1618.28 1757.19 1662.68 1689.31 1673.72H1689.3C1685.35 1673.28 1682.68 1672.92 1681.58 1672.69C1668.32 1669.87 1662.14 1663.73 1664.68 1658.9C1667.23 1654.07 1975.16 1617.14 2009.25 1613.34C2043.34 1609.54 2046.48 1598.03 2046.48 1598.03L2173.52 1452.42C2175.16 1449.73 2177.82 1447.71 2180.9 1446.17Z" fill="#739AF0"/>
<path d="M2202.78 1441.47C2202.78 1441.47 2142.18 1575.39 2130.64 1595.72C2119.12 1616.05 2093.9 1629.03 2093.9 1629.03L2093.74 1629.08C2058.86 1628.24 2029.48 1620.2 2010.22 1613.23C2043.41 1609.31 2046.49 1598.03 2046.49 1598.03L2173.52 1452.41C2175.16 1449.72 2177.82 1447.7 2180.9 1446.17C2190.04 1441.63 2202.78 1441.47 2202.78 1441.47Z" fill="#D7E2FF"/>
<path d="M1707.4 1692.85L1701.31 1760.4C1701.31 1760.4 1675.49 1769.69 1635.13 1767.55C1610.41 1766.23 1593.96 1760.8 1584.91 1756.8C1579.17 1754.27 1576.41 1752.29 1576.41 1752.29L1582.8 1681.48C1585.07 1679.55 1588.24 1678.13 1592.09 1677.15C1624 1668.97 1702.45 1690.12 1702.45 1690.12L1707.4 1692.85Z" fill="#E9F0FF"/>
<path d="M1592.09 1677.15L1584.91 1756.8C1579.17 1754.27 1576.41 1752.29 1576.41 1752.29L1582.8 1681.48C1585.07 1679.55 1588.24 1678.13 1592.09 1677.15Z" fill="#FF9843"/>
<path d="M1195.58 2908.39L1670 2781.76C1680.04 2779.07 1686.71 2771.05 1684.81 2763.93L1418.81 1763.89C1416.92 1756.77 1407.16 1753.15 1397.11 1755.83L922.689 1882.47C912.645 1885.15 905.976 1893.16 907.869 1900.28L1173.87 2900.32C1175.77 2907.44 1185.53 2911.07 1195.58 2908.39Z" fill="#FFE3CA"/>
<path d="M1195.58 2908.39L1234.58 2897.97L961.696 1872.05L922.689 1882.47C912.645 1885.15 905.976 1893.16 907.869 1900.28L1173.87 2900.32C1175.77 2907.44 1185.53 2911.07 1195.58 2908.39Z" fill="#F2BE8F"/>
<path d="M1273.58 2224.36L1193.72 1924.16L1254.6 1907.91L1334.45 2208.12L1273.58 2224.36Z" fill="#F4CFAE"/>
<path d="M1442.41 2315.41L1328.76 1888.12L1389.64 1871.87L1503.29 2299.17L1442.41 2315.41Z" fill="#F4CFAE"/>
<path d="M1370.11 2105.89L1313.27 1892.25L1299.7 1895.87L1356.53 2109.52L1370.11 2105.89Z" fill="#F2BE8F"/>
<path d="M1235.96 2141.71L1179.13 1928.05L1165.56 1931.68L1222.39 2145.33L1235.96 2141.71Z" fill="#F2BE8F"/>
<path d="M1071.49 1951.37L1072.76 1954.88C1072.8 1955 1072.86 1955.12 1072.94 1955.23L1089.8 1979.59C1090 1979.89 1090.09 1980.25 1090.05 1980.61L1088.81 2023.64C1088.69 2024.77 1083.76 2019.92 1082.82 2019.27C1072.59 2012.23 1045.21 1988.09 1033.76 1979.44C1031.93 1978.05 1029.33 1979.53 1029.59 1981.81C1029.71 1982.91 1030.14 1983.95 1030.85 1984.8L1070.32 2032.93L1068.23 2042.01C1067.93 2043.33 1068.76 2044.65 1070.08 2044.96L1077.11 2046.56C1078.41 2046.85 1079.71 2046.07 1080.04 2044.79L1085.13 2050.99C1085.37 2051.28 1085.49 2051.65 1085.46 2052.04L1082.94 2091.11C1082.72 2094.56 1083.7 2097.99 1085.72 2100.8C1086.54 2101.95 1087.42 2103.17 1088.24 2104.31C1089.95 2106.67 1093.27 2107.13 1095.56 2105.32L1096.71 2104.41C1100.45 2101.47 1102.68 2096.99 1102.78 2092.23L1103.44 2061.04C1103.46 2060.41 1103.84 2059.87 1104.42 2059.65L1116.24 2055.21L1115.79 2057.15C1115.49 2058.47 1116.32 2059.79 1117.64 2060.09L1124.67 2061.69C1125.99 2062 1127.32 2061.17 1127.62 2059.85L1129.87 2050.09L1148.3 2043.17C1149.79 2042.61 1151.08 2041.63 1152.01 2040.33C1153.19 2038.69 1154.53 2036.93 1154.2 2036.59C1153.15 2035.48 1120.16 2033.08 1107.42 2032.8C1106.69 2032.79 1106.8 2026.67 1106.81 2025.95L1105.07 1984.36C1105.09 1983.81 1105.39 1983.31 1105.87 1983.05L1116.24 1977.53C1117.4 1976.91 1118.32 1975.92 1118.84 1974.71L1118.86 1974.65C1119.23 1973.8 1118.74 1972.83 1117.83 1972.6L1101.38 1968.59C1100.9 1968.47 1100.51 1968.12 1100.33 1967.67L1098.79 1963.68C1098.31 1962.43 1096.56 1962.39 1096.01 1963.6L1095.41 1964.92L1073.78 1949.63C1072.57 1948.77 1070.98 1949.99 1071.49 1951.37Z" fill="#F2BE8F"/>
</g>
<defs>
<clipPath id="clip0_634_257">
<rect width="4000" height="2128" fill="white"/>
</clipPath>
</defs>
</svg>
